<?xml version="1.0" encoding="utf-8"?>
<!-- Generator: Adobe Illustrator 16.0.0, SVG Export Plug-In . SVG Version: 6.00 Build 0)  -->
<!DOCTYPE svg PUBLIC "-//W3C//DTD SVG 1.1//EN" "http://www.w3.org/Graphics/SVG/1.1/DTD/svg11.dtd">
<svg version="1.1" id="Layer_1" xmlns="http://www.w3.org/2000/svg" xmlns:xlink="http://www.w3.org/1999/xlink" x="0px" y="0px"
	 width="256px" height="256px" viewBox="0 0 256 256" enable-background="new 0 0 256 256" xml:space="preserve">
<g>
	<path fill="#F7DF77" d="M257.182,235.566c0,11-9,20-20,20h-216c-11,0-20-9-20-20v-216c0-11,9-20,20-20h216c11,0,20,9,20,20V235.566
		z"/>
</g>
<g>
	<path fill="#020201" d="M23.74,207.305c1.717-2.667,3.009-5.362,2.877-8.757c-0.147-3.729,1.561-6.862,4.612-9.143
		c1.841-1.378,3.729-2.707,4.87-4.78c0.438-0.794,1.17-1.117,1.924-1.304c9.731-2.374,18.387-7.448,27.664-10.908
		c5.553-2.068,10.28-5.278,14.861-8.633c2.398-1.757,4.724-4.383,6.382-6.894c3.026-4.586,7.738-7.015,11.458-10.648
		c1.033-1.008,1.917-1.845,1.95-3.405c0.016-0.742,0.38-1.572,0.821-2.196c1.795-2.539,9.158-4.42,11.934-2.886
		c1.511,0.838,2.438,0.771,3.865-0.241c7.893-5.603,16.11-6.695,24.637-1.306c2.823,1.783,5.815,1.976,8.86,0.666
		c4.818-2.071,9.851-3.686,14.326-6.51c2.794-1.763,5.966-2.153,9.128-2.684c8.334-1.396,16.264-4.692,24.769-5.309
		c1.157-0.586,2.536,0.242,3.66-0.57c2.526,0,5.057,0,7.584,0c1.186,0.729,2.493,0.187,3.735,0.355
		c9.082,0.094,12.891,3.859,13.048,13.04c0.043,2.564,0.198,4.998,1.794,7.19c1.319,1.813,0.94,3.929,0.611,5.992
		c-0.59,3.699-0.56,7.323,1.499,10.657c0,1.15,0,2.299,0,3.448c-0.76,1.604-0.151,3.314-0.383,4.96
		c-0.446,1.792-1.365,3.415-1.834,5.196c-0.32,1.222-0.886,2.554-0.259,3.702c1.544,2.823,1.282,5.49-0.221,8.181
		c-0.167,0.3-0.284,0.657-0.275,0.99c0.239,8.922-5.586,13.296-12.581,16.79c-6.426,3.21-13.131,5.493-20.359,5.976
		c-4.459,0.299-8.377,2.266-12.425,3.895c-12.354,4.977-24.808,9.681-36.716,15.73c-4.415,2.243-9.438,3.177-14.396,3.033
		c-8.085-0.236-16.005,1.425-24.038,1.604c-15.926,0.362-31.865,1.696-47.737-1.045c-6.22-1.076-12.551-1.444-18.764-2.6
		c-4.342-0.81-8.394-2.31-11.838-5.223c-2.959-2.505-4.39-5.768-5.042-9.473C23.74,211.9,23.74,209.604,23.74,207.305z"/>
	<path fill="#020201" d="M230.608,167.31l-0.331-0.031l-0.316,0.1c-0.038-1.664-0.531-3.391,0.647-4.896
		C230.608,164.091,230.608,165.7,230.608,167.31z"/>
	<path fill="#020201" d="M202.338,121.798c-1.081,1.086-2.379,0.78-3.66,0.57c0.023-0.208,0.093-0.397,0.21-0.57
		C200.038,121.798,201.187,121.798,202.338,121.798z"/>
	<path fill="#020201" d="M213.37,121.798c-0.011,0.217,0.036,0.42,0.141,0.609c-1.256,0.153-2.537,0.446-3.59-0.609
		C211.071,121.798,212.22,121.798,213.37,121.798z"/>
	<path fill="#AF8F58" d="M164.421,206.719c-26.196,12.381-53.947,15.484-82.498,13.847c-16.058-0.921-31.729-3.69-46.972-8.997
		c-5.119-1.783-4.195-6.051-4.874-9.591c-0.638-3.331,0.095-6.652,2.927-9.014c0.56-0.469,1.488-0.496,2.245-0.726
		c1.179,0.051,2.079,1.221,3.365,0.822c0.551-0.367,1.051-0.795,1.632-1.118c1.704-0.862,3.557-0.978,5.315-0.569
		c3.876,0.903,7.804,1.206,11.751,1.429c1.833,0.655,3.741,0.426,5.626,0.467c1.141,0.012,2.285,0.02,3.409,0.265
		c1.272,0.445,2.593,0.443,3.919,0.415c17.04,1.565,33.354-3.041,49.876-5.858c2.483-0.424,4.94-1.004,7.437-1.357
		c1.626-0.234,3.613-0.441,3.912,1.644c0.318,2.214-1.571,2.768-3.422,2.875c-0.564,0.033-1.138-0.124-1.703,0
		c-0.84,0.232-1.745,0.118-2.581,0.444c2.042-0.527,4.124-0.237,6.19-0.334c3.514,0.281,5.991,2.626,8.766,4.38
		c1.532,1.025,3.243,1.642,4.981,2.203c1.011,0.323,2.668,0.157,2.615,1.542c-0.048,1.233-1.67,1.307-2.707,1.702
		c-2.977,1.133-6.133,1.683-9.122,2.792c-9.48,2.254-18.982,4.229-28.814,4.034c-6.761-0.137-13.525,0.438-20.268,0.495
		c-9.35,0.081-18.791-0.241-27.672-3.973c-1.606-0.673-3.052-1.571-4.491-2.498c-1.482-1.318-3.582-2.274-2.909-4.889
		c0.246-0.949-0.417-1.178-1.115-1.322c-1.118-0.231-2.24-0.439-3.275-0.941c-0.91-0.407-1.842-0.653-2.809-0.374
		c-0.398,0.147-0.165-0.391-0.151,0.067c0.005,0.158,0.25,0.207,0.474,0.146c2.142,0.149,3.215,0.933,2.439,3.318
		c-0.337,1.033-0.315,2.268,0.241,3.351c0.879,3.237,2.987,5.387,5.983,6.751c0.724,0.562,1.48,1.07,2.357,1.376
		c1.104,0.603,2.246,1.102,3.478,1.389c1.737,1.085,3.673,1.086,5.617,1.023c2.405-0.226,4.538,1.052,6.65,1.134
		c-0.523-0.194-1.328-0.222-2.101-0.395c-0.457-0.172-0.825-0.464-1.144-0.823c-0.2-0.229-0.378-0.48-0.548-0.731
		c-1.124-1.534-2.655-0.719-4.048-0.693c-0.308,0.004-0.604-0.053-0.891-0.163c-1.48-1.1-3.252-1.518-4.953-2.103
		c-0.733-0.247-1.417-0.589-2.054-1.019c-1.943-1.338-1.943-1.338-2.151-0.264c-0.115,0.32-0.325,0.533-0.636,0.653
		c-3.705-0.996-4.85-4.051-5.849-7.23c0.011-1.028-0.281-2.158,0.925-2.785c0.608,0.041,0.831,0.49,1.027,0.963
		c0.081,1.411,1.072,0.989,1.891,0.92c1.438,0.426,2.117,1.837,3.343,2.543c5.796,4.165,12.566,5.274,19.391,6.027
		c13.117,1.444,26.249-0.471,39.38-0.025c2.598,0.087,5.189-0.76,7.821-0.804c0.733,0.02,1.413,0.214,2.006,0.653
		c0.693,0.84,1.476,1.446,2.656,0.942c0.433-0.11,0.869-0.202,1.303-0.297c2.845-0.54-1.066-0.908-0.037-1.402
		c0.028-0.352,0.177-0.633,0.449-0.854c3.213-1.559,6.933-1.193,10.156-2.696c12.297-3.441,24.381-7.505,36.211-12.316
		c1.048-0.428,2.076-0.974,3.259-0.938c3.31,0.944,5.81-1.026,8.478-2.375c2.237-0.119,4.05-1.281,5.883-2.403
		c1.515-0.406,2.995-0.913,4.432-1.545c1.495-0.45,2.876-1.156,4.247-1.883c0.979-0.463,1.954-0.933,2.906-1.451
		c1.832-1.188,4.337-0.378,6.011-2.031c1.753-0.935,4.59-0.34,4.798-3.43c-0.017-0.311,0.08-0.584,0.285-0.819
		c2.439-1.602,4.878-3.203,7.316-4.807c-2.391,3.181-0.24,7.356-2.674,10.623c-2.727,3.66-6.081,6.031-10.335,7.408
		c-1.379,0.447-2.646,1.242-3.965,1.876c-5.496,4.007-11.812,6.486-17.879,9.396c-5.467,2.623-11.227,4.613-16.744,7.14
		C167.126,206.52,165.812,206.771,164.421,206.719z"/>
	<path fill="#AF8F58" d="M180.459,174.98c1.011-0.018,1.817-1.01,3.055-0.564c-0.163,0.78-1.683,0.99-1.054,2.017
		c0.654,1.064,1.63-0.892,2.415,0.244c-0.034,1.309-1.394,1.143-2.103,1.711c-0.426,0.344-1.316,0.758-0.983,1.183
		c2.214,2.837-1.248,2.211-1.967,3.162c-0.664,0.882-1.516,0.899-1.035-0.688c0.101-0.338-0.273-0.604-0.677-0.507
		c-1.61,0.396-2.794,1.528-3.957,2.572c-0.776,0.697-3.584,0.422-1.714,2.854c0.055,0.072-1.182,1.135-1.815,1.734
		c-0.302,0.582-0.703,0.982-1.434,0.783c-0.198-0.22-0.344-0.471-0.432-0.749c-1.112-1.764-1.375,0.573-2.142,0.452
		c-1.586,0.654-3.017,1.661-4.763,2.034c1.829,0.029,3.02-1.869,4.926-1.469c0.501,0.322,0.674,0.76,0.48,1.331
		c-6.201,6.659-19.347,9.15-27.502,5.222c-1.927-1.015-3.643-2.36-5.443-3.57c-0.774-0.52-2.199-0.827-1.447-2.2
		c0.633-1.149,1.8-0.658,2.788-0.398c0.568,0.147,1.013,0.519,1.435,0.904c0.53,0.612,1.276,0.904,1.958,1.299
		c0.564,0.455,1.098,0.962,1.783,1.168c-0.034-0.019,0.149,0.113,0.149,0.113s0.047-0.222,0.009-0.227
		c-0.383-0.051-0.667-0.239-0.977-0.403c-0.766-0.732-1.797-1.031-2.615-1.669c-0.944-0.973-2.065-1.894-1.566-3.49
		c0.46-1.466,0.934-3.065-0.856-3.814c-2.054-0.857-3.933-3.061-6.54-1.28c-0.559,0.382-1.161,0.714-1.884,0.669
		c-1.178-0.449-1.84-1.271-1.855-2.56c0.285-0.842,0.305-1.599-0.687-2.02c-0.241-0.182-0.418-0.408-0.548-0.678
		c0.439-1.185-1.95-2.942,0.737-3.679c1.13,0.105,2.253,0.3,3.397,0.241c1.654-0.083,3.423-0.361,3.891-2.13
		c0.511-1.923-0.8-3.113-2.513-3.903c-2.493-1.149-4.454-2.75-4.32-5.862c0.114-0.295,0.284-0.557,0.506-0.782
		c0.245-0.231,0.536-0.412,0.787-0.64c0.403-0.366,1.201-0.684,1.021-1.186c-0.151-0.425-0.999,0.049-1.521-0.171
		c-0.332-0.151-0.514-0.405-0.557-0.766c1.86-4.482,3.003-4.995,8.381-3.776c2.449,0.49,4.075,1.784,4.771,4.325
		c0.501,1.835,2.065,2.683,3.889,2.931c1.548,0.21,2.742-0.426,3.292-1.89c0.567-1.507-0.005-2.697-1.409-3.448
		c-1.004-0.534-2.159-0.821-2.839-1.845c-0.348-0.411-0.696-0.823-1.068-1.263c0.818-0.848,2.064,0.542,2.836-0.742
		c-1.36-2.963-4.618,0.241-6.632-2.021c11.273-1.71,19.374,3.108,26.28,10.843c0.298,0.571-0.044,0.852-0.489,1.08
		c-0.475,0.248-0.945-0.269-1.424-0.013c0.282,0.184,0.566,0.365,0.887,0.511c0.266,0.161,0.488,0.357,0.692,0.581
		c0.563,0.721,1.021,1.515,1.601,2.218c0.478,0.555,1.058,0.99,1.678,1.375c0.931,0.709,2.194,0.599,3.142,1.268
		c0.558,1.598,1.395,2.44,2.188,0.256c1.337-3.688,4.305-5.456,7.532-7.058c8.906-4.418,17.665-9.103,26.062-14.44
		c5.063-3.219,9.698-6.932,12.733-12.264c2.241-3.931,1.217-6.574-3.103-7.812c-5.791-1.659-11.579-0.72-17.347,0.256
		c-5.171,0.876-10.332,1.808-15.496,2.715c-0.189-0.18-0.262-0.369-0.222-0.569c0.041-0.204,0.089-0.306,0.144-0.306
		c10.768-3.469,21.727-5.385,33.084-4.137c4.881,0.537,7.386,2.561,8.117,6.927c0.293,1.752,1.102,3.998-1.887,4.565
		c-0.352,0.068-0.737,0.564-0.897,0.949c-3.791,9.109-12.296,13.473-19.361,19.285c-0.559,0.462-1.12,0.638-1.879,0.548
		c-3.167-0.377-4.524,0.742-4.771,3.855c-0.229,2.877,0.632,4.784,4.007,4.374c0.698-0.344,0.792,0.083,0.792,0.625
		c-3.666,2.859-7.332,5.719-11.372,8.867c-0.457-1.845-0.493-3.146,0.2-4.523c1.163-2.304,0.352-3.994-1.91-4.966
		c-2.378-1.021-5.129,0.128-5.919,2.434c-0.288,0.843-0.189,1.824-0.954,2.484c-0.576,1.285-1.812,1.852-2.853,2.634
		c-5.752,3.407-11.505,6.817-17.901,8.926c-1.349,0.364-2.697,0.257-4.05,0.007c-1.369-0.252-2.815-0.511-3.577,1.062
		c-0.709,1.463-0.413,2.874,0.643,4.118c0.581,0.685,1.397,1.18,1.697,2.081c-0.143,2.3,1.267,0.494,1.857,0.584
		c0.729,0.11,1.932-0.049,0.937-1.396c-0.216-1.598,0.61-2.758,1.92-3.269c2.924-1.142,5.744-2.674,8.968-2.875
		c0.306,0.096,0.578,0.26,0.8,0.488c0.985,1.893,1.719,0.344,2.525-0.203c2.128-0.966,4.081-2.187,5.715-3.875
		c0.229-0.204,0.487-0.368,0.764-0.504c0.841-0.349,2.094-0.334,1.636-1.849C177.824,175.908,179.069,175.351,180.459,174.98z"/>
	<path fill="#AF8F58" d="M40.991,190.092c-0.042-1.22-0.061-2.079,1.647-2.515c2.54-0.648,4.912-1.957,7.354-2.983
		c0.217-0.264,0.483-0.466,0.79-0.613c5.861-1.363,11.061-4.399,16.59-6.589c0.272-0.151,0.563-0.275,0.854-0.383
		c1.17-0.46,2.525-0.6,3.238-1.851c-0.012-0.521-0.371-1.016-0.125-1.554c0.869-0.468,1.701-1.058,2.779-0.815
		c1.126,1.696,2.377,0.222,3.572,0.141c3.186-2.067,7.272-2.78,9.49-6.306c1.405-1.668,3.529-2.058,5.376-2.85
		c3.464-1.486,6.877-3,9.81-5.422c6.663-3.2,11.561-1.517,15.821,5.444c0.29,0.474,0.55,0.966,0.824,1.449
		c0.211,0.421,0.307,0.895,0.218,1.33c-1.521,7.466,3.019,12.438,7.199,17.566c0.749,2.137-0.375,2.811-2.266,3.222
		c-8.349,1.812-16.747,3.347-25.17,4.758c-4.934,0.825-9.852,1.759-14.857,2.078c-4.117,0.165-8.232,0.268-12.346,0.001
		c-1.185-0.014-2.374,0.031-3.558-0.069c-1.259-0.428-2.535-0.763-3.886-0.622c-0.952-0.017-1.906,0.031-2.851-0.118
		c-2.665-0.511-5.357-0.627-8.062-0.571c-4.164,0.14-8.061-1.614-12.191-1.717C40.857,190.842,40.774,190.505,40.991,190.092z"/>
	<path fill="#78592F" d="M206.974,130.646c1.044,0.12,2.543,0.172,3.989,0.476c4.592,0.964,4.824,1.956,1.591,5.576
		c-8.325,9.324-19.324,14.51-30.396,19.51c-3.56,1.606-7.143,3.093-10.239,5.488c-1.817,1.402-3.25,1.426-4.552-0.573
		c-3.286-5.045-9.329-7.398-12.319-12.832c-1.34-2.435-2.056-3.557,1.392-4.612c4.353-1.333,8.846-2.522,12.969-4.177
		c3.434-1.375,6.701-3.327,10.416-4.273C188.605,132.993,197.478,131.353,206.974,130.646z"/>
	<path fill="#AF8F58" d="M38.896,219.788c-2.682-1.265-5.404-2.452-8.032-3.821c-1.719-0.896-3.28-2.074-3.64-4.573
		c6.193,1.719,12.172,3.506,18.216,5.035c20.154,5.099,40.633,7.46,61.38,5.866c17.365-1.336,34.689-3.354,50.774-10.869
		c2.79-1.302,5.525-2.724,8.286-4.091c2.48-2.14,5.661-2.863,8.577-4.044c7.84-3.173,15.546-6.601,23.005-10.587
		c2.216-1.183,4.533-2.077,6.985-2.623c5.597-1.914,11.231-3.724,16.769-5.796c1.936-0.724,2.187,0.016,2.203,1.551
		c0.028,2.637-0.509,4.768-3.216,6.199c-7.66,4.054-15.1,8.583-24.066,9.173c-2.174,1.535-4.782,0.33-7.069,1.121
		c-5.246,1.283-9.863,4.002-14.604,6.436c-7.177,3.183-14.203,6.714-21.604,9.387c-1.055,0.137-1.945,0.698-2.896,1.114
		c-3.58,1.254-7.276,2.067-10.973,2.879c-2.964,0.708-6.017,0.756-9.01,1.256c-1.565-0.014-3.127-0.003-4.634,0.523
		c-11.981,0.752-23.864,2.699-35.881,2.932c-8.836,0.171-17.56-1.14-26.295-2.289c-6.454-0.849-13.006-1.015-19.347-2.647
		C42.1,221.476,40.122,221.455,38.896,219.788z"/>
	<path fill="#AF8F58" d="M113.475,149.876c-1.602-1.947-1.035-3.197,0.736-4.988c3.52-3.56,7.06-6.89,12.111-7.949
		c7.547-1.584,13.614,1.63,19.129,6.268c2.908,2.444,5.146,5.486,7.225,9.068c-5.625-2.53-11.159-3.546-17-2.25
		c-1.088,0.242-2.419,0.358-3.399-0.046c-3.742-1.548-7.17-0.575-10.604,0.886C117.11,152.743,115.133,152.507,113.475,149.876z"/>
	<path fill="#AF8F58" d="M149.925,221.07c-5.411,3.556-11.516,4.964-17.831,5.408c-15.19,1.069-30.399,1.883-45.588,2.974
		c-9.252,0.664-18.251-1.076-27.309-2.369c-6.897-0.98-13.908-1.251-20.655-3.203c-3.82-1.11-7.143-2.97-9.862-6.804
		c3.352,0.987,5.707,3.062,8.688,3.395c11.446,2.918,23.222,3.678,34.876,5.176c11.39,1.463,22.812,1.326,34.245-0.189
		c5.534-0.732,11.128-1.175,16.707-1.601c1.539,0.054,3.067-0.006,4.531-0.566c0.913-0.151,1.836-0.105,2.755-0.123
		c1.262,0.091,2.479-0.11,3.652-0.585c1.77-0.011,3.502-0.3,5.204-0.775c3.26-0.578,6.417-1.575,9.637-2.326
		C149.779,219.721,150.16,220.211,149.925,221.07z"/>
	<path fill="#AF8F58" d="M174.759,188.003c10.953-5.581,19.03-14.983,29.026-21.841c4.05-2.778,4.835-2.489,6.374,2.164
		c0.408,1.236-0.115,3.656,2.605,3.084l-0.081-0.09c-2.441,2.645-6.143,3.022-8.961,4.986c-1.406,1.6-3.388,2.182-5.251,2.973
		c-6.251,2.729-12.424,5.619-18.482,8.752c-1.396,0.721-2.782,1.624-4.503,1.169C174.978,188.961,174.571,188.661,174.759,188.003z"
		/>
	<path fill="#020201" d="M123.729,224.434c-16.966,2.036-33.97,4.354-51.05,2.075c-11.414-1.522-23.066-1.735-34.14-5.433
		c-0.412-0.137-0.78-0.401-1.17-0.606c0.509-0.229,1.019-0.454,1.527-0.683c14.946,3.585,30.214,4.854,45.471,5.935
		c11.46,0.812,22.834-1.264,34.24-2.146c2.396-0.185,4.797-0.275,7.195-0.41c1.291-0.806,2.812,0.066,4.126-0.565
		c2.991-0.467,5.98-0.934,8.973-1.399c0.501,0.231,0.871,0.535,0.669,1.169c-1.756,0.516-3.517,0.989-5.376,0.844
		c-1.124,0.641-2.435-0.052-3.567,0.515c-0.865,0.062-1.729,0.128-2.593,0.193C126.655,224.563,125.111,223.813,123.729,224.434z"/>
	<path fill="#020201" d="M169.27,189.199c0.453-0.166,0.901-0.332,1.354-0.499c0.698,0.451,1.398,0.9,2.098,1.353
		c0.784-0.774,1.692-1.199,2.823-1.012c0.734,0.008,1.447,0.047,1.577,1.006c-0.123,0.57-0.323,1.03-1.052,0.737
		c-9.937,3.634-19.702,7.768-29.909,10.644c-3.277,0.922-6.468,2.217-9.919,2.469c-0.712,0.309-1.423,0.61-1.472-0.63
		c3.732-1.214,7.464-2.429,11.867-3.86c-3.462-0.66-6.166-1.279-8.354-3.155c0.293-0.508,0.781-0.649,1.316-0.708
		c10.285,4.645,19.068,0.77,27.546-4.853C167.604,189.838,168.02,188.924,169.27,189.199z"/>
	<path fill="#020201" d="M166.413,183.616c-2.973,1.056-5.972,2.037-8.902,3.197c-1.321,0.522-2.823,1.208-1.932,3.197
		c-1.117,0.936-2.233,1.892-3.746,0.685c-1.436-1.276-3.357-2.072-3.428-4.517c-0.097-3.492,1.727-5.181,5.008-4.085
		c1.374,0.455,2.66,0.3,3.996,0.343c0.683-0.382,1.271-0.395,1.661,0.405c-0.569,2.224-2.855,1.361-4.005,2.29
		c2.882-0.723,5.729-1.912,8.539-3.216c4.316-1.512,8.188-3.857,12.025-6.292c1.184-0.751,2.247-2.046,3.954-1.414
		c0.293,0.259,0.584,0.514,0.876,0.771c-0.96,0.846-1.922,1.693-2.881,2.539c0.442,1.832-1.586,1.328-2.115,2.24l0.019-0.017
		c-1.73,1.509-4.097,1.912-5.853,3.379C168.56,183.302,167.57,184.015,166.413,183.616z"/>
	<path fill="#020201" d="M204.449,190.082c-12.461,6.636-25.203,12.637-38.567,17.253c-0.487-0.205-0.975-0.411-1.461-0.616
		c13.019-5.446,25.924-11.141,38.611-17.324C203.344,189.959,203.896,190.021,204.449,190.082z"/>
	<path fill="#AF8F58" d="M121.69,165.856c-4.841-6.306-9.67-12.622-14.54-18.907c-0.62-0.801-1.356-1.593-2.207-2.116
		c-0.893-0.549-1.671-1.097-0.978-2.097c0.836-1.204,1.973-0.466,2.607,0.234c1.375,1.518,2.534,3.231,3.791,4.857
		c0.763,0.986,1.545,1.957,2.319,2.936c3.317,2.484,5.042,6.255,7.583,9.37c2.036,2.167,3.775,4.587,5.794,6.767
		c0.545,0.589,1.056,1.206,1.337,1.972c0.325,0.88,0.622,1.835-0.21,2.539c-0.969,0.822-1.671,0.012-2.32-0.629
		c-0.487-0.481-0.92-1.016-1.326-1.567C122.837,168.146,122.086,167.099,121.69,165.856z"/>
	<path fill="#020201" d="M119.569,160.477c-2.295-3.237-4.591-6.475-6.886-9.712c0.263-0.296,0.527-0.592,0.792-0.889
		c1.058,1.555,2.468,1.511,4.135,1.152c1.305-0.282,2.705-0.126,4.063-0.166c0.56,0.734,1.403,0.49,2.138,0.622
		c-1.597,2.554-3.934,1.932-6.1,1.82c1.045,1.271,2.488,0.22,3.81-0.033c4.653-0.892,9.231-1.36,13.336,1.782
		c0.128,1.172-0.914,0.846-1.468,1.148c-3.836-1.362-6.735-0.532-8.255,3.526c-0.285,0.184-0.588,0.224-0.911,0.123
		c-0.429-0.267-0.718-0.628-0.782-1.144c-0.04-0.751,0.48-1.419,0.448-2.421c-1.644,0.423-3.664-0.041-3.3,2.644
		C120.452,159.581,120.179,160.141,119.569,160.477z"/>
	<path fill="#020201" d="M133.39,156.204c0.546-0.252,1.093-0.503,1.638-0.753c0.583-0.465,1.219-0.453,1.881-0.215
		c1.672,0.982,2.519,2.89,4.31,4.112c-0.054-1.34-1.416-1.84-1.113-2.994c0.29-0.262,0.579-0.523,0.868-0.784
		c0.528,0.188,1.042,0.458,1.585,0.546c2.552,0.42,4.286,1.539,3.998,4.47c-0.204,2.089-1.71,3.068-3.472,3.114
		c-2.544,0.067-5.452-0.393-5.896-3.416C136.812,157.704,135.394,156.872,133.39,156.204z"/>
	<path fill="#AF8F58" d="M136.759,155.616c-0.577-0.056-1.153-0.109-1.731-0.166c-4.763-1.996-9.614-2.695-14.608-0.917
		c-1.7,0.607-3.111,0.537-4.138-1.541c2.606-0.423,5.223-0.31,7.53-1.508c5.251-1.62,9.709-0.024,13.717,3.39
		C137.674,155.541,137.47,155.843,136.759,155.616z"/>
	<path fill="#020201" d="M152.586,217.602c7.164-3.173,14.328-6.348,21.489-9.521c0.444,0.15,0.826,0.362,0.885,0.895
		c-0.472,1.44-1.977,1.099-2.937,1.701c-2.311,2.239-5.471,2.481-8.292,3.522c-1.005,1.504-2.717,1.602-4.22,2.111
		c-1.831,0.646-2.888,3.354-5.451,2.049C153.446,218.343,152.9,218.197,152.586,217.602z"/>
	<path fill="#AF8F58" d="M172.023,210.676c0.938-0.652,1.876-1.306,2.814-1.957c5.3-3.473,10.967-6.05,17.302-6.877
		c1.316-0.172,2.755-0.339,3.995,0.515c0.23,0.076,0.461,0.151,0.688,0.225c0.488,0.224,0.855,0.515,0.661,1.135
		c-7.577,0.382-14.542,2.949-21.343,6.058C174.806,210.382,173.57,211.159,172.023,210.676z"/>
	<path fill="#AF8F58" d="M221.548,167.017c2.225-5.172-0.32-10.922,2.025-16.08c1.126,3.396,0.649,6.837,0.889,10.228
		C224.704,164.581,224.778,164.575,221.548,167.017z"/>
	<path fill="#020201" d="M102.368,158.353c-0.667,2.21-2.537,3.204-4.402,4.01c-3.547,1.532-7.184,2.853-10.784,4.261
		c-0.655-0.982-0.319-1.864,0.609-2.249c2.751-1.14,5.315-2.771,8.321-3.262c0.813-0.542,1.627-1.083,2.411-1.67
		c0.649-0.761,1.553-1.176,2.347-1.742C101.368,157.918,101.869,158.135,102.368,158.353z"/>
	<path fill="#020201" d="M125.702,184.051c-5.386-5.147-9.195-10.853-6.69-18.806c0.379,0.686,0.757,1.371,1.137,2.056
		c0.466,0.29,0.579,0.741,0.584,1.246c-0.214,1.354-0.458,2.712,0.032,4.062c0.307,1.294,0.763,2.505,1.873,3.354
		c0.861,0.521,0.566,1.675,1.259,2.287l-0.09-0.058c0.332,0.786,1.857,0.867,1.287,2.184c-0.117,1.252,1.268,1.678,1.507,2.733
		C126.493,183.604,126.199,183.925,125.702,184.051z"/>
	<path fill="#020201" d="M68.009,177.662c-5.558,2.819-10.981,5.981-17.323,6.811c-0.387-0.747,0.187-1.015,0.663-1.332l0.043-0.034
		c0.637-1.243,2.019-1.069,3.029-1.6c0.713-0.489,1.681-0.408,2.324-1.051c0.364-0.248,0.729-0.496,1.094-0.748
		c1.11-0.021,1.999-0.733,3.033-0.99c0.856-0.331,1.605-0.845,2.356-1.363c0.946-0.23,1.799-0.69,2.686-1.068
		C67.192,175.865,68.415,175.526,68.009,177.662z"/>
	<path fill="#AF8F58" d="M213.998,151.465c-3.061,2.588-6.047,5.272-9.208,7.729c-2.218,1.723-4.676,3.137-7.637,3.303
		c-0.251-1.279,0.732-1.42,1.34-1.768c4.258-2.432,8.434-4.97,12.12-8.248c0.732-0.65,1.638-1.229,2.736-1.198
		C213.62,151.154,213.835,151.217,213.998,151.465z"/>
	<path fill="#AF8F58" d="M179.584,174.21c-5.064,3.087-9.901,6.599-15.675,8.354c-0.634,0.341-0.921,0.013-1.076-0.562
		c0.436-1.561,1.915-1.837,3.09-2.448c3.342-1.736,6.515-3.762,9.776-5.631c0.969-0.914,2.129-1.436,3.431-1.667
		c0.621-0.265,1.244-0.529,1.864-0.793c0.703-0.211,0.887,0.069,0.679,0.718C180.976,172.858,180.279,173.535,179.584,174.21z"/>
	<path fill="#020201" d="M196.135,202.356c-7.291-0.03-13.701,2.874-20.05,5.993c-0.386,0.188-0.831,0.248-1.247,0.369
		c-0.255-0.211-0.51-0.426-0.763-0.638c4.619-2.525,9.034-5.521,14.414-6.315c2.544-0.488,5.089-0.508,7.629,0.015
		C196.124,201.974,196.129,202.164,196.135,202.356z"/>
	<path fill="#AF8F58" d="M220.514,156.608c-3.027,2.74-5.787,5.252-8.57,7.742c-0.348,0.31-0.647,1.088-1.302,0.468
		c-0.39-0.368-0.809-0.792-0.591-1.466c0.406-1.264,8.165-7.124,9.567-7.172C219.812,156.175,220.015,156.362,220.514,156.608z"/>
	<path fill="#AF8F58" d="M96.837,154.944c13.128-1.944,13.128-1.944,14.526,0.67c-4.213,0.08-8.308,0.048-12.349,0.688
		c-0.892,0.142-1.494-0.431-2.171-0.824c-0.23-0.116-0.307-0.234-0.233-0.354C96.686,155.005,96.761,154.944,96.837,154.944z"/>
	<path fill="#AF8F58" d="M219.215,180.817c0.876-3.409,2.616-6.55,2.442-10.211C224.995,172.143,223.85,177.204,219.215,180.817z"/>
	<path fill="#020201" d="M213.998,151.465c-0.234,0.004-0.45-0.059-0.648-0.185c-0.04-0.19-0.026-0.38,0.04-0.562
		c1.69-0.721,3.188-1.674,4.059-3.377c1.168-0.929,2.337-1.858,3.507-2.786c0.145-0.316,0.35-0.362,0.615-0.141
		c1.724,1.143,0.296,2.362,0.087,3.553c-2.208,1.161-3.202,4.113-6.151,4.188C215.002,151.926,214.5,151.695,213.998,151.465z"/>
	<path fill="#AF8F58" d="M95.753,152.611c2.767-2.051,5.124-3.799,7.644-5.667C103.04,151.787,100.329,153.913,95.753,152.611z"/>
	<path fill="#AF8F58" d="M154.769,139.097c3.232-1.372,6.451-2.772,9.705-4.097c0.816-0.332,2.025-0.703,2.378,0.396
		c0.427,1.323-1.095,1.209-1.776,1.45c-3.092,1.093-6.238,2.023-9.367,3.014C154.966,140.135,154.696,139.824,154.769,139.097z"/>
	<path fill="#AF8F58" d="M212.765,171.409c2.151-3.01,4.649-5.705,7.393-8.466c0.261,4.514-2.177,7.141-7.474,8.377
		C212.684,171.318,212.765,171.409,212.765,171.409z"/>
	<path fill="#AF8F58" d="M212.689,174.294c0.021,0.284,0.039,0.568,0.059,0.854c-0.61,2.437-2.832,2.541-4.658,3.219
		c-1.725,1.104-3.605,1.678-5.661,1.672c-0.688-0.332-1.045-0.865-1.005-1.645c0.572-1.434,1.969-1.067,3.049-1.397
		C207.44,176.79,209.889,175,212.689,174.294z"/>
	<path fill="#AF8F58" d="M212.107,168.444c0.748-4.395,4.8-6.05,7.781-8.646C218.021,163.246,215.145,165.849,212.107,168.444z"/>
	<path fill="#AF8F58" d="M215.506,152.155c2.219-1.146,3.33-3.927,6.151-4.188c-2.467,3.854-5.72,6.72-10.565,8.768
		C212.422,154.332,214.032,153.316,215.506,152.155z"/>
	<path fill="#AF8F58" d="M180.968,130.186c0.023,0.292,0.052,0.583,0.077,0.876c-3.023,0.964-6.058,1.893-9.064,2.907
		c-1.553,0.521-2.061-0.284-2.354-1.516C173.44,131.691,177.206,130.939,180.968,130.186z"/>
	<path fill="#AF8F58" d="M136.759,155.616c0.256-0.247,0.512-0.494,0.77-0.742c0.858,0.494,1.716,0.986,2.575,1.48
		c0.486,0.457,0.966,0.922,1.463,1.368c0.723,0.646,2.149,1.326,1.256,2.326c-0.97,1.09-2.373,0.346-3.237-0.646
		C138.554,158.218,137.691,156.886,136.759,155.616z"/>
	<path fill="#AF8F58" d="M164.948,168.702c-0.643-0.451-1.288-0.899-1.932-1.35c1.351-1.848-1.153-1.783-1.405-2.836l0.075,0.079
		c-0.434-0.445-0.465-0.913-0.08-1.405c0.262-0.267,0.521-0.534,0.783-0.801c1.815,1.867,3.629,3.734,5.445,5.601
		C167.05,168.952,165.938,168.582,164.948,168.702z"/>
	<path fill="#AF8F58" d="M198.172,167.18c-0.266-0.209-0.529-0.417-0.794-0.627c1.126-3.015,3.822-3.593,6.523-4.209
		C202.348,164.398,200.309,165.849,198.172,167.18z"/>
	<path fill="#AF8F58" d="M40.991,190.092c0.061,0.193,0.052,0.383-0.025,0.568c0.608,1.391-1.037,1.35-1.361,2.146
		c0.033,0.617-0.131,1.122-0.769,1.359c-3.015-2.304-3.049-2.562-0.54-4.07C39.194,190.095,40.092,190.094,40.991,190.092z"/>
	<path fill="#AF8F58" d="M68.009,177.662c-0.043-2.181-1.373-0.806-2.207-0.797c-0.428-0.393-0.37-0.784,0-1.175
		c1.846-0.695,3.691-1.39,5.537-2.086c0.454,0.426,0.91,0.851,1.364,1.276c-1.234,0.993-3.055,1.119-3.927,2.649
		C68.521,177.574,68.266,177.619,68.009,177.662z"/>
	<path fill="#AF8F58" d="M106.154,148.336c0.292,1.799-0.107,3.19-1.792,3.814c-0.341,0.126-1.211-0.192-1.206-0.266
		C103.272,150.009,105.156,149.552,106.154,148.336z"/>
	<path fill="#020201" d="M38.296,190.097c-1.061,0.603-2.719,1.093-0.533,2.392c0.671,0.398,1.545,0.583,1.073,1.677
		c-1.83,0.538-2.659-0.787-3.587-1.927C36.299,191.572,36.328,189.454,38.296,190.097z"/>
	<path fill="#020201" d="M204.473,176.995c-0.484,1.356-2.207,0.375-2.815,1.498c-0.457,0.849-1.199,1.168-2.126,1.152
		c-0.686-0.131-1.376-0.259-1.328-1.199c1.924-0.494,3.414-2.112,5.521-2.14C203.973,176.536,204.221,176.767,204.473,176.995z"/>
	<path fill="#AF8F58" d="M154.769,139.097c0.312,0.254,0.627,0.51,0.939,0.764c-1.629,1.286-3.723,1.084-6.195,2.47
		C150.867,139.22,153.173,139.816,154.769,139.097z"/>
	<path fill="#AF8F58" d="M28.512,205.209c0.665,2.179,1.066,3.499,1.519,4.981C27.403,209.09,27.403,209.09,28.512,205.209z"/>
	<path fill="#AF8F58" d="M221.044,182.991c0.233-0.908,0.221-1.141,0.329-1.234c0.968-0.838,1.066-2.583,2.726-2.652
		c0.188-0.008,0.593,0.506,0.562,0.729C224.415,181.607,222.851,181.867,221.044,182.991z"/>
	<path fill="#020201" d="M77.691,172.929c-0.814,0.554-1.618,1.124-2.447,1.652c-0.585,0.375-1.396,0.667-1.727-0.049
		c-0.187-0.402,0.376-1.151,0.601-1.744l-0.107,0.044c0.949-0.489,1.9-0.684,2.851-0.004
		C77.139,172.862,77.415,172.896,77.691,172.929z"/>
	<path fill="#AF8F58" d="M77.071,171.692c0.034-1.909,1.427-2.779,2.923-4.017c0.896,3.128-1.542,3.135-2.993,3.933L77.071,171.692z
		"/>
	<path fill="#AF8F58" d="M221.57,144.414c-0.212,0.015-0.416,0.061-0.615,0.141c-1.797-1.451-1.262-2.658,0.404-3.752
		C222.988,141.908,221.737,143.194,221.57,144.414z"/>
	<path fill="#020201" d="M152.586,217.602c0.572,0.095,1.176,0.13,1.475,0.757c-0.404,1.119-1.148,1.18-2.081,0.675
		c-0.372,0.371-0.821,0.514-1.342,0.437c-0.49-0.186-0.878-0.437-0.693-1.062C150.823,218.14,151.705,217.87,152.586,217.602z"/>
	<path fill="#020201" d="M164.948,168.702c0.615-1.64,1.979-0.245,2.886-0.712c0.635,0.282,1.566,0.43,0.643,1.418
		C167.167,169.841,165.935,169.885,164.948,168.702z"/>
	<path fill="#AF8F58" d="M111.946,141.183c0.517,2.009-0.126,3.05-1.796,3.932C109.923,143.395,110.507,142.327,111.946,141.183z"/>
	<path fill="#020201" d="M196.118,201.779c-2.544-0.006-5.086-0.009-7.629-0.014c2.479-1.16,5.085-0.553,7.65-0.558
		C196.133,201.4,196.126,201.591,196.118,201.779z"/>
	<path fill="#AF8F58" d="M86.401,162.595c1.08-2.387,2.604-2.57,4.534-1.981C89.768,161.791,88.318,162.078,86.401,162.595z"/>
	<path fill="#AF8F58" d="M217.448,147.341c-0.354,2.325-1.651,3.518-4.059,3.377C214.482,149.279,215.98,148.328,217.448,147.341z"
		/>
	<path fill="#020201" d="M121.69,165.856c1.017,0.671,1.936,1.416,2.068,2.752c0.171,0.172,0.239,0.351,0.207,0.542
		c-0.035,0.196-0.077,0.294-0.127,0.294c-0.685,0.311-1.222-0.029-1.754-0.397c-0.702-0.637-1.363-1.301-1.226-2.37
		C121.135,166.402,121.413,166.13,121.69,165.856z"/>
	<path fill="#020201" d="M179.129,172.257c-0.81,0.938-1.848,1.528-2.989,1.963c-0.481-0.08-0.803-0.346-0.933-0.823
		c0.825-0.918,1.854-1.519,3.01-1.921C178.521,171.736,178.823,171.996,179.129,172.257z"/>
	<path fill="#020201" d="M159.512,216.31c1.406-0.703,2.813-1.407,4.22-2.111C163.089,216.429,161.382,216.534,159.512,216.31z"/>
	<path fill="#AF8F58" d="M197.484,203.715c-0.22-0.38-0.439-0.757-0.662-1.134c1.455,0,2.908,0,4.359,0
		c0.034,0.161,0.067,0.324,0.101,0.486C200.017,203.283,198.752,203.498,197.484,203.715z"/>
	<path fill="#AF8F58" d="M54.805,181.813c-1.138,0.432-2.274,0.862-3.412,1.293c0.169-1.581,1.286-1.98,2.625-2.099
		C54.458,181.103,54.714,181.376,54.805,181.813z"/>
	<path fill="#AF8F58" d="M96.837,154.944c0.013,0.177,0.015,0.356,0.006,0.534c-1.339,0.204-2.676,0.406-4.698,0.712
		C93.888,154.26,95.44,154.973,96.837,154.944z"/>
	<path fill="#AF8F58" d="M120.857,166.677c0.356,0.691,0.713,1.383,1.069,2.075c0.031,0.334-0.069,0.617-0.317,0.847
		c-0.305,0.124-0.619,0.157-0.943,0.101c-0.487-0.228-0.785-0.543-0.517-1.119c0-0.426,0-0.853,0-1.279
		C120.386,167.092,120.621,166.885,120.857,166.677z"/>
	<path fill="#020201" d="M51.348,183.141c-0.222,0.444-0.441,0.889-0.663,1.332c-0.231,0.041-0.462,0.08-0.693,0.121
		c-0.188-1.149-1.262-0.56-1.922-0.92C49.084,182.662,50.167,182.592,51.348,183.141z"/>
	<path fill="#AF8F58" d="M100.869,157.7c-0.244,1.032-0.961,1.636-1.865,2.074c-0.793,0.243-0.984-0.12-0.83-0.828
		C98.676,157.673,99.693,157.516,100.869,157.7z"/>
	<path fill="#AF8F58" d="M175.479,189.388c-0.921,0.223-1.839,0.443-2.758,0.665c-0.293-1.648,1.087-1.636,2.035-2.05
		c0.315,0.275,0.63,0.549,0.945,0.824C175.763,189.067,175.688,189.256,175.479,189.388z"/>
	<path fill="#AF8F58" d="M54.805,181.813c-0.263-0.267-0.525-0.537-0.788-0.806c0.748-0.983,1.812-0.401,2.728-0.551
		C56.558,181.567,55.665,181.668,54.805,181.813z"/>
	<path fill="#AF8F58" d="M60.965,179.025c-0.982,0.509-1.768,1.906-3.126,0.686c0.667-0.723,1.239-1.635,2.467-1.262
		C60.618,178.534,60.839,178.728,60.965,179.025z"/>
	<path fill="#AF8F58" d="M60.965,179.025c-0.22-0.192-0.44-0.384-0.66-0.576c0.911-0.465,1.822-0.931,2.733-1.396
		c0.255,0.135,0.343,0.276,0.269,0.427c-0.077,0.154-0.156,0.23-0.238,0.23C62.662,178.619,61.888,178.941,60.965,179.025z"/>
	<path fill="#AF8F58" d="M63.071,177.711c-0.018-0.219-0.029-0.438-0.032-0.657c0.922-0.453,1.843-0.909,2.765-1.362
		c0,0.391-0.001,0.783-0.001,1.175C65.017,177.554,64.091,177.781,63.071,177.711z"/>
	<path fill="#AF8F58" d="M150.67,219.05c0.438-0.007,0.874-0.013,1.31-0.018c0.476,1.851-1.138,1.591-2.055,2.038
		c-0.234-0.397-0.468-0.797-0.702-1.196C149.419,219.099,150.256,219.442,150.67,219.05z"/>
	<path fill="#AF8F58" d="M98.174,158.946c0.277,0.276,0.555,0.552,0.83,0.828c-0.764,0.878-1.678,1.434-2.893,1.338
		C96.254,159.872,97.372,159.561,98.174,158.946z"/>
	<path fill="#AF8F58" d="M76.864,172.83c-0.951,0-1.901,0.002-2.852,0.003c0.882-0.739,1.637-1.818,3.054-1.146
		c0.005,0.006-0.075-0.089-0.07-0.084C76.954,172.017,76.909,172.423,76.864,172.83z"/>
	<path fill="#AF8F58" d="M227.362,161.557c0.771,1.436,0.769,2.334,0.075,3.273C226.626,163.902,227.167,163.002,227.362,161.557z"
		/>
	<path fill="#AF8F58" d="M181.672,172.181c-0.227-0.239-0.451-0.479-0.678-0.717c0.572-0.556,1.383-1.672,1.95-0.959
		C183.72,171.477,182.325,171.755,181.672,172.181z"/>
	<path fill="#020201" d="M39.604,192.806c-0.399-1.255,1.055-1.336,1.361-2.146c4.34-0.994,8.165,2.036,12.434,1.59
		c2.81,0.669,5.703-0.189,8.513,0.479c0.839,0.071,1.68,0.142,2.521,0.213c1.147,0.566,2.463-0.094,3.606,0.501
		c1.097,0.063,2.194,0.127,3.291,0.191c4.364,0.385,8.728,0.396,13.093-0.009c13.258-1.859,26.419-4.256,39.535-6.932
		c1.736-0.354,2.537-0.847,1.746-2.642c0.299-0.315,0.599-0.627,0.898-0.942c2.955-2.233,6.886-2.062,9.675,0.484
		c0.766,0.698,1.673,1.858,0.902,2.661c-1.967,2.053-0.206,3.612,0.322,5.356l0.092-0.11c-1.542,0.101-2.776-1.499-4.934-0.754
		c2.521,1.742,4.731,3.269,6.941,4.795c-0.265,0.561-0.756,0.701-1.317,0.709c-2.854-1.26-5.03-3.854-8.335-4.227
		c-1.245-1.043-3.599,1.163-4.301-1.469c1.104-1.182,2.355,0.316,3.568-0.22c0.992-0.438,2.128-0.738,1.888-2.011
		c-0.249-1.305-1.369-1.256-2.482-1.038c-8.86,1.731-17.711,3.521-26.594,5.125c-10.607,1.913-21.239,3.729-32.093,2.357
		c-1.185-0.527-2.508,0.043-3.695-0.469c-1.067-0.072-2.134-0.144-3.201-0.217c-1.912-0.605-3.928,0.113-5.842-0.465
		c-3.734,0.133-7.432-0.109-11.03-1.191C43.919,191.751,41.765,192.234,39.604,192.806z"/>
	<path fill="#020201" d="M134.77,203.267c0.49,0.209,0.982,0.42,1.472,0.629c-3.27,1.688-6.942,1.911-10.42,2.84
		c-1.516,2.086-3.779,0.688-5.63,1.209c-13.042,1.175-26.132,1.01-39.2,1.319c-6.764,0.158-13.498-0.788-20.038-2.668
		c-3.299-0.951-6.479-2.221-8.973-4.735c-0.136-0.759,0.115-1.098,0.915-0.843c9.18,6.007,19.617,6.776,30.054,6.564
		c11.007-0.222,22.065,0.473,33.019-0.981C122.27,205.766,128.505,204.395,134.77,203.267z"/>
	<path fill="#020201" d="M120.268,192.135c-1.012,2.281-3.359,1.501-4.99,1.835c-5.811,1.194-11.722,1.895-17.597,2.771
		c-0.794,0.118-1.615,0.266-2.217-0.504c-0.246-0.139-0.329-0.28-0.25-0.424c0.079-0.145,0.158-0.219,0.24-0.219
		c5.654-0.925,11.308-1.851,16.962-2.775c1.443-0.237,2.885-0.48,4.327-0.722C117.923,191.649,119.098,191.605,120.268,192.135z"/>
	<path fill="#020201" d="M95.454,195.597c0.001,0.214,0.005,0.428,0.01,0.642c-1.081,0.272-2.162,0.542-3.243,0.812
		c-1.637,0.618-3.406-0.139-5.04,0.492c-0.604,0.069-1.21,0.135-1.815,0.202c-2.351,0.646-4.797-0.166-7.147,0.473
		c-2.291,0.265-4.577,1.289-6.881,0.056c1.463-2.105,3.79-0.216,5.498-1.193c0.867-0.061,1.736-0.123,2.604-0.184
		c1.61-0.677,3.369,0.125,4.981-0.51C88.054,195.491,91.742,195.389,95.454,195.597z"/>
	<path fill="#020201" d="M52.895,201.018c-0.305,0.279-0.61,0.562-0.915,0.843c-0.908-0.738-1.815-1.474-2.723-2.212
		c-0.408-1.007-0.889-1.781-1.984-0.632c-0.061-0.356-0.121-0.71-0.18-1.066c-0.742-2.462-2.665-2.99-4.908-2.992
		c-0.146-0.095-0.29-0.19-0.436-0.285c0.147-0.18,0.294-0.357,0.441-0.536c1.291-0.438,2.584-0.369,3.879-0.022
		c1.997,1.148,4.741,0.251,6.502,2.409C48.402,198.363,52.267,199.54,52.895,201.018z"/>
	<path fill="#020201" d="M65.141,198.112c-3.549,0.46-6.941-0.36-10.322-1.268c0.042-0.382,0.083-0.763,0.123-1.145
		c3.445,0.415,6.891,0.829,10.336,1.246C65.232,197.334,65.187,197.723,65.141,198.112z"/>
	<path fill="#020201" d="M176.069,190.782c0.26-0.234,0.517-0.47,0.775-0.703c2.427-1.351,4.638-3.321,7.75-2.729
		c0.146,0.309,0.123,0.603-0.093,0.873C181.915,189.817,179.717,192.689,176.069,190.782z"/>
	<path fill="#020201" d="M52.013,208.681c-3.238-1.249-5.537-3.343-6.203-6.905c-0.43-0.727-0.609-1.344,0.597-1.352
		c1.198,2.816,2.134,5.846,5.587,6.812C52.382,207.713,52.384,208.194,52.013,208.681z"/>
	<path fill="#020201" d="M76.835,197.079c-1.601,1.472-3.895-0.262-5.498,1.193c-1.84,0-3.682,0-5.522,0
		C69.388,195.708,73.188,197.568,76.835,197.079z"/>
	<path fill="#020201" d="M125.647,190.554c1.056,1.595,3.154,0.145,4.301,1.47c-2.015,0.232-4.082-0.345-6.071,0.507
		c-0.793,0.338-2.1,0.733-2.342-0.405c-0.304-1.426,1.198-1.197,2.079-1.383C124.275,190.604,124.969,190.612,125.647,190.554z"/>
	<path fill="#020201" d="M207.854,177.744c1.708-0.722,3.514-1.256,4.895-2.597c1.896,1.551-0.092,2.531-0.824,2.862
		c-1.216,0.549-2.545,1.424-4.071,0.939C207.423,178.549,207.479,178.146,207.854,177.744z"/>
	<path fill="#020201" d="M94.872,214.243c-2.978,1.012-6.001,0.704-9.049,0.301c1.916-1.333,4.096-0.902,6.194-0.981
		C92.848,214.301,94.08,213.347,94.872,214.243z"/>
	<path fill="#020201" d="M184.502,188.226c-0.07-0.286-0.141-0.571-0.209-0.859c0.7-1.653,2.311-2.015,3.744-2.638
		c0.743-0.148,1.445-0.101,2.045,0.434c0.196,0.351,0.184,0.689-0.045,1.02C188.378,187.366,186.854,188.916,184.502,188.226z"/>
	<path fill="#020201" d="M46.407,200.424c-0.199,0.452-0.397,0.9-0.597,1.354c-1.351-1.961-0.776-3.877,0.181-5.791
		c-1.117-1.019-2.745,0.006-3.807-1.028c2.426-0.297,4.711-0.364,4.908,2.992C46.079,198.559,46.661,199.607,46.407,200.424z"/>
	<path fill="#020201" d="M207.854,177.744c0,0.402-0.001,0.805-0.001,1.207c-1.036,3.183-4.267,0.664-5.908,2.275
		c-0.729,0.317-1.093-0.021-1.27-0.703c0.117-1.061,0.723-1.269,1.64-0.942C204.377,179.622,206.112,178.676,207.854,177.744z"/>
	<path fill="#020201" d="M63.763,212.694c-2.16-0.011-4.442,0.588-6.234-1.252c-0.213-0.627,0.166-0.914,0.653-1.14
		c0.325-0.086,0.658-0.116,0.993-0.102c1.573,0.494,3.236,0.42,4.838,0.751c0.302,0.161,0.512,0.406,0.645,0.723
		C64.686,212.301,64.225,212.497,63.763,212.694z"/>
	<path fill="#020201" d="M82.376,212.023c-1.17,0.059-2.385,0.386-4.095-0.644c3.457-1.203,6.374-0.265,9.203-0.429
		c0.834-0.05,0.586,0.907-0.332,1.084C85.561,211.757,83.969,211.599,82.376,212.023z"/>
	<path fill="#020201" d="M63.763,212.694c0.281-0.229,0.564-0.459,0.846-0.687c1.113-0.953,2.207-0.403,3.302,0.042
		c1.568,0.356,3.134,0.717,5.492,1.253C69.557,213.893,66.684,212.975,63.763,212.694z"/>
	<path fill="#020201" d="M56.802,207.406c1.625,1.021,4.156,0.312,5.081,2.664c-0.705,0.78-1.553,0.65-2.422,0.378
		c-1.277-0.425-2.736-0.534-3.462-1.945C55.881,207.856,56.34,207.628,56.802,207.406z"/>
	<path fill="#020201" d="M198.926,182.576c-1.248,0.954-2.606,1.657-4.178,1.9c-0.531-0.179-0.914-0.476-0.88-1.108
		c0.938-1.88,2.592-2.164,4.448-2.005C198.813,181.62,199.207,181.93,198.926,182.576z"/>
	<path fill="#AF8F58" d="M58.91,210.051c0.991,0.008,1.982,0.015,2.973,0.02l0.278-0.035c1.67,0.234,3.467-0.452,5.011,0.692
		c0.049,0.227,0.059,0.453,0.032,0.682c-0.943,0.593-1.926,0.425-2.913,0.15c-1.788-0.337-3.745,0.311-5.381-0.918
		c-0.154-0.13-0.206-0.263-0.154-0.395S58.858,210.051,58.91,210.051z"/>
	<path fill="#020201" d="M94.872,214.243c-0.968-0.162-2.08,0.286-2.855-0.681c1.127-0.176,2.247-0.652,3.391-0.078
		c1.434-0.505,2.875-0.427,4.322-0.057c0.669,0.124,1.652-0.523,1.858,0.75c-1.176,0.634-2.391,0.363-3.604,0.163
		C96.946,214.308,95.909,214.274,94.872,214.243z"/>
	<path fill="#020201" d="M104.873,210.631c2.151-0.966,4.401-0.331,7.075-0.895c-1.266,2.231-2.827,1.445-4.108,1.586
		C106.946,210.686,105.678,211.653,104.873,210.631z"/>
	<path fill="#020201" d="M47.274,199.017c0.337-0.779,0.674-1.558,1.02-2.353c1.359,0.693,0.842,1.94,0.964,2.984
		c-1.008,0.05,0.575,1.712-0.833,1.402C47.422,200.832,47.049,200.039,47.274,199.017z"/>
	<path fill="#020201" d="M52.107,206.614c-0.261-0.94-2.141-1.558-1.301-2.399c1.203-1.208,1.751,0.657,2.566,1.254
		c0.521,0.379,1.092,0.689,1.64,1.031c-0.133,0.44-0.385,0.791-0.771,1.045c-0.273,0.122-0.562,0.18-0.863,0.178
		C52.705,207.642,52.384,207.154,52.107,206.614z"/>
	<path fill="#AF8F58" d="M120.191,207.946c1.757-0.963,3.771-0.721,5.63-1.211c0.002,0.248,0.007,0.494,0.011,0.742
		c0.341,0.574,0.242,1.178,0.122,1.783c-0.469,0.053-0.938,0.104-1.407,0.157c-0.802-0.887-2.113,0.019-2.927-0.83
		C121.144,208.373,120.668,208.158,120.191,207.946z"/>
	<path fill="#020201" d="M67.172,210.728c-1.653-0.357-3.471,0.481-5.011-0.692C63.988,209.132,65.783,208.458,67.172,210.728z"/>
	<path fill="#020201" d="M93.357,210.927c-0.211,0.533-0.225,0.688-0.292,0.715c-1.486,0.62-2.983,0.507-4.464-0.005
		c-0.091-0.031-0.146-0.562-0.083-0.595C90.072,210.255,91.64,210.491,93.357,210.927z"/>
	<path fill="#020201" d="M193.895,183.795c0.285,0.227,0.571,0.454,0.855,0.682c-1.498,0.771-2.978,1.594-4.713,1.705
		c-0.039-0.274-0.08-0.548-0.12-0.821C190.736,183.553,191.987,182.842,193.895,183.795z"/>
	<path fill="#020201" d="M119.531,211.814c1.634-0.755,2.862-1.237,4.88-0.253C122.445,212.409,121.222,213.09,119.531,211.814z"/>
	<path fill="#020201" d="M104.873,210.631c0.964,0.335,2.13-0.194,2.967,0.691c-1.721,0.104-3.423,1.221-5.494,0.278
		C103.152,210.442,104.034,210.596,104.873,210.631z"/>
	<path fill="#020201" d="M110.669,212.879c-2.086,1.736-3.367,0.933-4.647,0.656C107.204,212.557,108.506,212.769,110.669,212.879z"
		/>
	<path fill="#020201" d="M163.7,197.25c-0.926,1.729-2.054,1.935-3.627,2.298C160.748,197.473,161.777,196.932,163.7,197.25z"/>
	<path fill="#020201" d="M139.109,204.696c-0.893,1.415-1.811,2.06-3.047,2.186c-0.15,0.016-0.561-0.581-0.497-0.688
		C136.287,204.95,137.384,204.573,139.109,204.696z"/>
	<path fill="#020201" d="M78.218,198.216c2.317-1.151,4.754-0.484,7.148-0.474C83.028,198.57,80.612,198.242,78.218,198.216z"/>
	<path fill="#020201" d="M52.107,206.614c0.487,0.258,0.974,0.516,1.462,0.773c0.501,0.536,0.892,1.126,0.91,1.895
		c-0.029,0.298-0.172,0.532-0.412,0.711c-1.137,0.27-1.448-0.751-2.055-1.312c-0.006-0.481-0.012-0.962-0.018-1.445
		C51.989,207.021,52.026,206.815,52.107,206.614z"/>
	<path fill="#020201" d="M72.667,211.042c1.995-1.2,3.102-0.617,4.711,0.321C75.528,212.347,74.453,211.504,72.667,211.042z"/>
	<path fill="#020201" d="M121.62,208.588c0.996,0.206,2.673-1.986,2.927,0.83C123.543,209.242,121.832,211.56,121.62,208.588z"/>
	<path fill="#020201" d="M54.068,209.993c0.033-0.252,0.066-0.505,0.098-0.756c1.683-0.381,3.167-0.187,4.162,1.43
		c-0.267,0.26-0.533,0.516-0.799,0.775C56.153,211.49,55.065,210.851,54.068,209.993z"/>
	<path fill="#020201" d="M125.954,209.263c-0.987-0.531-0.833-1.141-0.122-1.785c0.919-0.158,1.834-0.301,2.547,0.91
		C127.558,208.684,126.756,208.973,125.954,209.263z"/>
	<path fill="#020201" d="M198.926,182.576c-0.233-0.259-0.464-0.518-0.697-0.776c0.166-1.831,1.247-1.996,2.697-1.48
		c0.34,0.301,0.68,0.605,1.02,0.907C201.089,182.011,200.09,182.481,198.926,182.576z"/>
	<path fill="#020201" d="M152.768,204.205c-0.484-1.528,0.78-2.043,0.854-3.134C155.474,202.703,154.692,203.512,152.768,204.205z"
		/>
	<path fill="#020201" d="M114.981,210.366c1.323-1.479,2.558-1.512,4.66-1.205C117.933,210.358,116.803,210.789,114.981,210.366z"/>
	<path fill="#020201" d="M158.071,199.61c0.867-0.099,0.973,0.737,1.267,1.291c0.249,0.464,0.054,0.879-0.526,0.939
		c-0.855,0.086-1.225-0.498-1.397-1.193C157.304,200.204,157.408,199.75,158.071,199.61z"/>
	<path fill="#020201" d="M57.196,193.619c1.963-0.053,3.97-0.648,5.841,0.465C61.071,194.173,59.1,194.333,57.196,193.619z"/>
	<path fill="#020201" d="M82.376,212.023c1.594-0.831,3.185-0.746,4.776,0.013C85.558,212.804,83.968,212.16,82.376,212.023z"/>
	<path fill="#020201" d="M87.181,197.542c1.579-1.209,3.352-0.417,5.04-0.492C90.647,198.304,88.831,197.073,87.181,197.542z"/>
	<path fill="#020201" d="M84.42,196.386c-1.568,1.067-3.304,0.511-4.981,0.51C81.033,196.075,82.733,196.284,84.42,196.386z"/>
	<path fill="#020201" d="M99.73,213.426c-1.44,0.019-2.88,0.038-4.322,0.059C96.834,212.383,98.283,212.913,99.73,213.426z"/>
	<path fill="#020201" d="M97.983,214.341c1.201-0.056,2.403-0.11,3.604-0.163C100.437,215.327,99.209,214.81,97.983,214.341z"/>
	<path fill="#020201" d="M120.268,192.135c-1.176-0.013-2.351-0.024-3.525-0.037C117.924,191.49,119.104,190.967,120.268,192.135z"
		/>
	<path fill="#020201" d="M46.07,194.114c-1.293,0.007-2.585,0.017-3.878,0.022C43.479,193.275,44.773,193.463,46.07,194.114z"/>
	<path fill="#020201" d="M64.291,211.56c0.972-0.051,1.942-0.1,2.913-0.15c0.235,0.214,0.471,0.426,0.706,0.641
		c-1.102-0.014-2.202-0.027-3.303-0.042C64.534,211.834,64.429,211.686,64.291,211.56z"/>
	<path fill="#020201" d="M66.239,194.301c1.264-0.104,2.565-0.5,3.694,0.468C68.668,194.872,67.407,194.946,66.239,194.301z"/>
	<path fill="#020201" d="M54.086,207.25c0.309-0.25,0.618-0.5,0.926-0.75c0.597,0.302,1.194,0.605,1.791,0.906
		c-0.248,0.217-0.496,0.435-0.744,0.652C55.06,208.622,54.456,208.221,54.086,207.25z"/>
	<path fill="#020201" d="M120.997,169.402c0.232-0.096,0.464-0.191,0.698-0.286c0.58,0.458,1.138,1.017,1.949,0.435
		c0.038-0.313,0.076-0.628,0.114-0.942c0.188,0.116,0.362,0.265,0.564,0.344c1.184,0.459,1.115,3.288,2.62,2.172
		c1.167-0.863-0.279-2.836-1.264-3.635c-2.469-2.005-3.744-4.972-6.109-7.013c0.199-0.48,0.397-0.96,0.595-1.441
		c1.168,0.106,2.333-0.306,3.503-0.021c0.275,0.294,0.549,0.588,0.824,0.883c0.676,0.829,0.158,1.805,0.328,2.696
		c0.68,2.417,1.852,4.49,4.411,5.252c2.317,0.688,3.644,2.189,3.317,4.488c-0.37,2.591-2.533,3.312-4.864,3.389
		c-1.369,0.046-2.743-0.076-3.957-0.843c-0.343-0.288-0.808-0.275-1.187-0.478c-0.808-0.409-1.548-0.897-1.991-1.728
		C119.527,171.423,120.015,170.378,120.997,169.402z"/>
	<path fill="#020201" d="M175.205,173.396c0.311,0.273,0.621,0.548,0.935,0.823c-4.037,3.113-8.615,5.301-13.098,7.65
		c-1.097,1.393-2.441,1.936-4.153,1.205c-0.492-0.212-0.985-0.425-1.479-0.637C163.544,179.822,169.405,176.669,175.205,173.396z"/>
	<path fill="#020201" d="M169.274,182.466c2.256-0.48,3.671-2.88,6.207-2.72c-1.231,2.707-3.477,3.857-6.311,4.105
		c-0.082-0.11-0.163-0.218-0.245-0.329C168.812,183.098,168.882,182.728,169.274,182.466z"/>
	<path fill="#020201" d="M151.833,190.698c1.37,0.42,2.465-0.641,3.746-0.688c0.616-0.327,1.28-1.396,1.922-0.372
		c0.65,1.037-0.582,1.356-1.193,1.562c-1.984,0.672-3.999,1.347-6.2,0.924C150.097,190.977,150.854,190.71,151.833,190.698z"/>
	<path fill="#020201" d="M166.432,190.03c-2.35,0.222-3.858,3.102-6.821,2.056c1.527-2.792,5.09-1.483,6.803-3.562
		c0.245,0.193,0.402,0.442,0.445,0.758C166.84,189.6,166.692,189.848,166.432,190.03z"/>
	<path fill="#020201" d="M126.078,159.852c0.445-0.327,0.89-0.657,1.336-0.983c0.542-0.396,1.101-0.876,1.657-0.051
		c0.443,0.662-0.156,0.992-0.531,1.342c-0.811,0.751-1.652,1.469-2.481,2.201C124.139,161.511,124.928,160.681,126.078,159.852z"/>
	<path fill="#020201" d="M142.454,189.807c1.546,0.654,3.692-0.137,4.763,1.985c-2.085,1.179-3.358-0.522-4.877-1.198
		C142.15,190.301,142.188,190.036,142.454,189.807z"/>
	<path fill="#020201" d="M152.996,157.086c-0.083,0.637-0.416,0.973-0.905,0.826c-1.197-0.354-2.315-0.92-2.895-2.098
		c-0.186-0.379,0.04-0.994,0.641-0.858C151.174,155.26,152.269,155.979,152.996,157.086z"/>
	<path fill="#020201" d="M148.676,155.83c-1.822,0.176-3.003-0.648-4.289-1.71C146.897,153.395,146.897,153.395,148.676,155.83z"/>
	<path fill="#020201" d="M154.723,194.186c-0.77,1.893-2.4,1.822-3.894,1.908c-0.367,0.02-0.818-0.625-0.467-0.979
		C151.582,193.896,153.119,193.953,154.723,194.186z"/>
	<path fill="#020201" d="M122.922,174.165c0.268,0.239,0.536,0.478,0.804,0.716c-0.276,1.14,1.658,2.167,0.172,3.369
		c-0.988-0.317-1.214-1.228-1.573-2.032c-0.705-0.43-1.249-0.985-0.793-1.846C121.831,173.809,122.396,173.825,122.922,174.165z"/>
	<path fill="#020201" d="M161.606,163.19c0.028,0.468,0.056,0.936,0.08,1.405c-1.656-0.182-2.922-0.861-3.624-2.571
		C159.842,161.297,160.525,162.77,161.606,163.19z"/>
	<path fill="#020201" d="M157.565,161.449c-0.487,0.218-0.605,0.321-0.682,0.296c-1.353-0.442-2.257-1.384-2.777-2.675
		c-0.057-0.143,0.405-0.702,0.497-0.672C156.071,158.876,156.989,159.907,157.565,161.449z"/>
	<path fill="#020201" d="M142.454,189.807c-0.039,0.262-0.075,0.524-0.114,0.787c-1.93-0.066-2.603-1.615-4.459-3.207
		C140.629,187.44,141.612,188.502,142.454,189.807z"/>
	<path fill="#020201" d="M166.565,189.594c-0.054-0.357-0.103-0.714-0.153-1.071c0.563-0.541,1.107-1.11,1.7-1.615
		c0.484-0.414,1.216-0.472,1.468,0.045c0.162,0.335-0.325,0.987-0.521,1.495C168.513,189.449,167.704,189.885,166.565,189.594z"/>
	<path fill="#020201" d="M169.171,183.853c0.135,2.253-1.494,2.313-2.896,1.973c-1.037-0.251-0.225-0.97,0.19-1.421
		c0.819-0.828,1.672-1.458,2.809-0.506L169.171,183.853z"/>
	<path fill="#020201" d="M161.611,164.517c1.289,0.003,2.188,0.892,2.689,1.792c1.017,1.838-0.688,0.871-1.284,1.043
		C162.322,166.52,161.336,165.83,161.611,164.517z"/>
	<path fill="#020201" d="M165.233,186.72c-0.285,0.884-1.044,1.11-1.829,1.178c-0.616,0.053-1.217-0.322-0.968-0.97
		c0.307-0.806,1.173-0.948,1.984-0.994C164.966,185.905,165.23,186.166,165.233,186.72z"/>
	<path fill="#020201" d="M175.464,179.762c0.203-1.222,1.651-1.267,2.115-2.241c1.422,0.058,1.959,0.485,0.729,1.697
		C177.473,180.035,176.401,179.537,175.464,179.762z"/>
	<path fill="#AF8F58" d="M126.078,159.852c-0.282,0.835-1.06,1.666-0.019,2.509c-0.414,0.078-0.827,0.156-1.239,0.234
		c-2.818-0.57-0.013-1.823-0.329-2.696c0.21-0.071,0.424-0.127,0.644-0.167C125.449,159.771,125.764,159.811,126.078,159.852z"/>
	<path fill="#020201" d="M125.094,180.375c-0.429-0.726-0.858-1.457-1.287-2.183c1.33-0.032,2.573,0.25,2.71,1.789
		C126.565,180.51,125.631,180.395,125.094,180.375z"/>
	<path fill="#020201" d="M145.373,194.186c0.687,0.019,1.481,0.033,1.536,0.906c0.047,0.717-0.688,0.778-1.204,0.747
		c-0.612-0.04-1.476,0.061-1.528-0.854C144.136,194.246,144.802,194.202,145.373,194.186z"/>
	<path fill="#AF8F58" d="M169.274,183.898c-0.935,0.17-1.872,0.338-2.809,0.506c-0.019-0.265-0.036-0.524-0.053-0.79
		c0.857-0.622,1.709-1.263,2.861-1.148C169.274,182.944,169.274,183.423,169.274,183.898z"/>
	<path fill="#020201" d="M160.984,188.061c-0.389,0.691-0.768,1.271-1.533,1.29c-0.642,0.018-0.716-0.498-0.502-0.908
		c0.307-0.584,0.718-1.216,1.524-1.062C160.688,187.423,160.831,187.845,160.984,188.061z"/>
	<path fill="#020201" d="M142.469,193.449c0.571,0.278,0.966,0.857,0.421,1.229c-0.581,0.396-1.482,0.568-1.978-0.386
		C140.875,192.983,141.611,193.105,142.469,193.449z"/>
	<path fill="#020201" d="M142.469,193.449c-0.597,0.135-1.257,0.158-1.557,0.844c-0.716-0.469-1.429-0.938-2.144-1.406
		c0.522-0.543,1.081-0.46,1.661-0.106C141.171,192.812,141.938,192.77,142.469,193.449z"/>
	<path fill="#020201" d="M140.43,192.78c-0.554,0.035-1.107,0.07-1.661,0.105c-0.715-0.191-1.074-0.684-1.176-1.39
		c-0.001,0.004-0.089,0.107-0.092,0.11C138.753,191.309,139.94,191.169,140.43,192.78z"/>
	<path fill="#AF8F58" d="M166.565,189.594c0.831-0.383,1.662-0.764,2.494-1.146c0.07,0.252,0.141,0.503,0.21,0.753
		c-0.552,0.719-1.205,1.294-2.127,1.49c-0.237-0.22-0.474-0.44-0.713-0.659C166.478,189.888,166.521,189.739,166.565,189.594z"/>
	<path fill="#020201" d="M84.421,193.625c-4.363,1.013-8.727,1.006-13.091,0.009C75.693,193.631,80.058,193.626,84.421,193.625z"/>
	<path fill="#020201" d="M68.778,177.53c0.011-2.808,1.995-2.688,3.926-2.649C72.225,176.994,70.243,176.877,68.778,177.53z"/>
	<path fill="#020201" d="M61.913,192.729c-2.847,0.001-5.731,0.685-8.513-0.479C56.25,192.197,59.115,191.858,61.913,192.729z"/>
	<path fill="#020201" d="M68.039,193.442c-1.236,0.083-2.514,0.455-3.606-0.501C65.678,192.803,66.899,192.82,68.039,193.442z"/>
	<path fill="#020201" d="M150.67,219.05c-0.22,0.738-0.895,0.676-1.447,0.825c-3.141,1.124-6.363,1.938-9.65,2.495
		c-0.224-0.39-0.445-0.778-0.67-1.169c3.682-0.931,7.36-1.862,11.042-2.795C150.185,218.62,150.428,218.835,150.67,219.05z"/>
	<path fill="#020201" d="M129.93,222.601c-1.261,1.019-2.732,0.501-4.126,0.565C127.1,222.406,128.517,222.521,129.93,222.601z"/>
	<path fill="#020201" d="M123.729,224.434c1.333-1.025,2.849-0.536,4.306-0.511C126.664,224.641,125.199,224.557,123.729,224.434z"
		/>
	<path fill="#020201" d="M130.628,223.729c1.076-0.952,2.352-0.531,3.567-0.515C133.08,223.9,131.858,223.852,130.628,223.729z"/>
	<path fill="#020201" d="M187.888,185.172c-0.928,1.175-2.414,1.435-3.594,2.194c-2.539,0.754-4.718,2.493-7.449,2.713
		c-0.292-0.553-0.807-0.668-1.366-0.691c0.117-0.17,0.193-0.355,0.225-0.561c7.498-3.46,14.998-6.923,22.5-10.38
		c0.493,0.208,0.988,0.414,1.484,0.624c0.035,1.417-1.251,1.543-2.083,1.914C194.386,182.424,191.249,184.062,187.888,185.172z"/>
	<path fill="#AF8F58" d="M158.889,183.075c1.385-0.4,2.768-0.802,4.153-1.205c0.29,0.23,0.579,0.462,0.867,0.693
		c-3.167,1.866-6.741,2.599-10.181,3.719c-0.599,0.194-1.158,0.42-1.394-0.267c-0.259-0.751,0.148-1.338,0.96-1.484
		C155.199,184.197,157.119,183.934,158.889,183.075z"/>
	<path fill="#AF8F58" d="M123.667,159.015c-1.158,1.563-2.325,1.638-3.503,0.021c-0.844-1.561-1.537-2.991,1.275-3.163
		c1.335-0.082,2.648-0.508,4.171-0.819C125.619,156.902,123.933,157.62,123.667,159.015z"/>
	<path fill="#AF8F58" d="M122.922,174.165c-1.761,0.229-0.976,1.2-0.599,2.053c-1.982-0.327-1.879-1.974-2.14-3.39
		c0.256-0.33,0.546-0.361,0.87-0.098C121.658,173.234,122.795,173.042,122.922,174.165z"/>
	<path fill="#AF8F58" d="M121.054,172.73c-0.29,0.032-0.58,0.064-0.87,0.098c-0.99-1.409-0.657-2.828-0.035-4.248
		c0.283,0.274,0.565,0.548,0.848,0.822C120.539,170.52,120.426,171.631,121.054,172.73z"/>
	<path fill="#AF8F58" d="M187.888,185.172c3.502-2.869,8.213-3.399,11.799-6.103c0.656-0.192,1.315-0.385,1.971-0.577
		c0.218,0.363,0.438,0.726,0.655,1.088c-0.438,0.291-1.22-0.064-1.389,0.738c-1.073,0.178-2.027,0.568-2.696,1.48
		c-1.604,0.319-3.312,0.412-4.334,1.996c-1.652-0.311-2.608,1.158-3.978,1.565C189.24,185.299,188.564,185.235,187.888,185.172z"/>
	<path fill="#AF8F58" d="M123.644,169.551c-0.28,0.688-0.201,1.939-1.095,1.825c-1.14-0.145-0.572-1.479-0.854-2.26l-0.004-0.264
		l0.237-0.101C122.754,168.47,123.111,169.2,123.644,169.551z"/>
	<path fill="#AF8F58" d="M132.65,184.2l-0.331,0.079l-0.334-0.054c-0.967-0.189-2.023,0.295-2.925-0.394
		c1.472-2.111,2.564-1.289,3.539,0.458L132.65,184.2z"/>
	<path fill="#AF8F58" d="M134.107,185.78c1.186,0.799,0.606,1.528-0.184,2.07c-0.716,0.494-1.423,0-1.652-0.622
		c-0.375-1.016,0.615-0.494,0.987-0.685C133.609,186.367,133.739,185.942,134.107,185.78z"/>
	<path fill="#AF8F58" d="M129.062,183.832c0.979,0.108,2.022-0.269,2.925,0.394c-1.039,0.019-2.076,0.038-3.115,0.045
		c-0.014,0-0.057-0.153-0.03-0.204C128.893,183.976,128.984,183.909,129.062,183.832z"/>
	<path fill="#AF8F58" d="M134.107,185.78c-0.283,0.255-0.565,0.511-0.849,0.764c0.551-0.977-0.771-1.467-0.608-2.344l-0.052,0.089
		C133.691,184.192,133.897,184.989,134.107,185.78z"/>
	<path fill="#AF8F58" d="M54.086,207.25c0.658,0.269,1.316,0.538,1.973,0.809c0.951,0.663,1.902,1.327,2.853,1.991
		c-0.001,0.196-0.001,0.393,0,0.591l-0.29,0.042l-0.293-0.016c-1.387-0.476-2.774-0.953-4.161-1.43
		c-0.199-0.617-0.398-1.234-0.598-1.85C53.761,207.412,53.933,207.368,54.086,207.25z"/>
	<path fill="#AF8F58" d="M124.744,173.181c3.088,0.81,4.342-0.627,4.499-3.556c1.812,0.804,2.238,2.18,1.263,3.318
		C128.883,174.839,126.757,174.632,124.744,173.181z"/>
</g>
</svg>
