<?xml version="1.0" encoding="utf-8"?>
<!-- Generator: Adobe Illustrator 16.0.0, SVG Export Plug-In . SVG Version: 6.00 Build 0)  -->
<!DOCTYPE svg PUBLIC "-//W3C//DTD SVG 1.1//EN" "http://www.w3.org/Graphics/SVG/1.1/DTD/svg11.dtd">
<svg version="1.1" id="Layer_1" xmlns="http://www.w3.org/2000/svg" xmlns:xlink="http://www.w3.org/1999/xlink" x="0px" y="0px"
	 width="256px" height="256px" viewBox="0 0 256 256" enable-background="new 0 0 256 256" xml:space="preserve">
<path fill-rule="evenodd" clip-rule="evenodd" fill="#020201" d="M4.947,163.564c2.03-3.152,3.556-6.337,3.4-10.35
	c-0.173-4.409,1.846-8.112,5.453-10.808c2.175-1.628,4.408-3.2,5.756-5.651c0.517-0.938,1.384-1.322,2.275-1.541
	c11.504-2.806,21.736-8.805,32.703-12.895c6.564-2.447,12.152-6.24,17.567-10.206c2.836-2.077,5.586-5.181,7.545-8.15
	c3.577-5.421,9.148-8.292,13.545-12.587c1.221-1.192,2.267-2.181,2.305-4.026c0.019-0.878,0.449-1.859,0.97-2.597
	c2.123-3.001,10.827-5.225,14.107-3.41c1.787,0.99,2.883,0.912,4.57-0.286c9.331-6.623,19.045-7.914,29.124-1.543
	c3.337,2.108,6.875,2.335,10.473,0.788c5.698-2.45,11.646-4.358,16.938-7.697c3.302-2.083,7.05-2.544,10.791-3.172
	c9.852-1.651,19.225-5.547,29.279-6.276c1.368-0.693,2.998,0.286,4.326-0.674c2.988,0,5.978,0,8.966,0
	c1.402,0.862,2.948,0.221,4.416,0.42c10.738,0.11,15.24,4.562,15.424,15.415c0.052,3.031,0.235,5.907,2.121,8.5
	c1.56,2.144,1.113,4.644,0.724,7.084c-0.697,4.373-0.662,8.658,1.771,12.599c0,1.358,0,2.717,0,4.076
	c-0.898,1.897-0.18,3.918-0.453,5.864c-0.526,2.117-1.614,4.036-2.167,6.142c-0.378,1.445-1.047,3.018-0.305,4.376
	c1.823,3.338,1.513,6.491-0.262,9.671c-0.197,0.354-0.336,0.776-0.326,1.171c0.283,10.547-6.602,15.717-14.871,19.847
	c-7.599,3.796-15.524,6.494-24.069,7.066c-5.272,0.352-9.902,2.677-14.688,4.604c-14.604,5.882-29.328,11.443-43.404,18.595
	c-5.218,2.652-11.155,3.756-17.02,3.585c-9.557-0.279-18.92,1.683-28.416,1.897c-18.827,0.428-37.67,2.005-56.432-1.237
	c-7.353-1.271-14.837-1.706-22.182-3.073c-5.133-0.955-9.922-2.729-13.995-6.173c-3.499-2.96-5.189-6.818-5.959-11.198
	C4.947,168.999,4.947,166.282,4.947,163.564z"/>
<path fill-rule="evenodd" clip-rule="evenodd" fill="#020201" d="M249.496,116.285l-0.39-0.036l-0.375,0.118
	c-0.046-1.969-0.629-4.009,0.765-5.788C249.496,112.48,249.496,114.383,249.496,116.285z"/>
<path fill-rule="evenodd" clip-rule="evenodd" fill="#020201" d="M216.075,62.484c-1.277,1.284-2.811,0.921-4.326,0.674
	c0.028-0.246,0.111-0.47,0.249-0.674C213.357,62.484,214.716,62.484,216.075,62.484z"/>
<path fill-rule="evenodd" clip-rule="evenodd" fill="#020201" d="M229.116,62.484c-0.01,0.255,0.045,0.496,0.169,0.719
	c-1.486,0.181-3,0.528-4.244-0.719C226.4,62.484,227.758,62.484,229.116,62.484z"/>
<path fill-rule="evenodd" clip-rule="evenodd" fill="#AF8F58" d="M171.253,162.872c-30.968,14.637-63.774,18.306-97.526,16.369
	c-18.983-1.089-37.508-4.362-55.528-10.636c-6.051-2.106-4.959-7.152-5.761-11.338c-0.755-3.938,0.112-7.863,3.46-10.656
	c0.662-0.553,1.758-0.585,2.654-0.856c1.393,0.06,2.457,1.443,3.977,0.971c0.651-0.433,1.243-0.939,1.93-1.322
	c2.014-1.018,4.204-1.156,6.283-0.671c4.582,1.068,9.225,1.425,13.892,1.688c2.167,0.774,4.422,0.503,6.651,0.551
	c1.35,0.015,2.701,0.023,4.03,0.314c1.504,0.526,3.066,0.523,4.633,0.492c20.144,1.848,39.43-3.596,58.962-6.929
	c2.936-0.5,5.84-1.184,8.791-1.604c1.922-0.276,4.271-0.52,4.625,1.944c0.376,2.617-1.858,3.271-4.046,3.399
	c-0.667,0.038-1.346-0.147-2.013,0c-0.993,0.274-2.062,0.14-3.051,0.525c2.414-0.623,4.875-0.281,7.318-0.395
	c4.153,0.332,7.082,3.104,10.363,5.178c1.812,1.211,3.834,1.94,5.888,2.604c1.196,0.383,3.155,0.185,3.091,1.824
	c-0.056,1.457-1.973,1.544-3.199,2.011c-3.519,1.341-7.251,1.99-10.785,3.301c-11.206,2.665-22.439,5-34.062,4.769
	c-7.992-0.161-15.988,0.519-23.959,0.586c-11.053,0.095-22.214-0.287-32.713-4.696c-1.898-0.797-3.607-1.86-5.308-2.954
	c-1.753-1.558-4.235-2.688-3.438-5.778c0.29-1.123-0.493-1.394-1.319-1.564c-1.321-0.275-2.647-0.521-3.872-1.113
	c-1.075-0.482-2.177-0.772-3.32-0.442c-0.472,0.173-0.195-0.462-0.179,0.079c0.006,0.188,0.295,0.245,0.561,0.172
	c2.532,0.178,3.8,1.104,2.883,3.924c-0.398,1.223-0.372,2.682,0.285,3.96c1.039,3.827,3.531,6.37,7.073,7.981
	c0.856,0.664,1.75,1.265,2.786,1.628c1.305,0.712,2.656,1.303,4.112,1.641c2.053,1.283,4.341,1.285,6.64,1.21
	c2.843-0.268,5.364,1.244,7.861,1.34c-0.619-0.229-1.57-0.263-2.483-0.467c-0.54-0.202-0.976-0.547-1.352-0.972
	c-0.237-0.271-0.448-0.568-0.649-0.865c-1.328-1.813-3.139-0.851-4.786-0.82c-0.364,0.004-0.714-0.062-1.053-0.193
	c-1.75-1.299-3.845-1.792-5.855-2.486c-0.867-0.29-1.674-0.695-2.428-1.204c-2.297-1.58-2.297-1.58-2.542-0.31
	c-0.137,0.378-0.385,0.629-0.753,0.772c-4.379-1.178-5.733-4.79-6.914-8.548c0.013-1.216-0.333-2.551,1.094-3.294
	c0.719,0.049,0.982,0.581,1.214,1.139c0.095,1.67,1.267,1.169,2.236,1.089c1.7,0.503,2.503,2.171,3.952,3.005
	c6.852,4.923,14.855,6.236,22.923,7.125c15.506,1.708,31.03-0.555,46.553-0.03c3.071,0.104,6.135-0.898,9.246-0.949
	c0.866,0.023,1.67,0.253,2.371,0.771c0.819,0.994,1.744,1.711,3.14,1.115c0.512-0.131,1.027-0.24,1.541-0.35
	c3.363-0.64-1.261-1.074-0.044-1.659c0.033-0.416,0.21-0.748,0.531-1.01c3.799-1.842,8.195-1.41,12.007-3.186
	c14.537-4.067,28.822-8.873,42.808-14.56c1.237-0.505,2.453-1.15,3.852-1.11c3.912,1.117,6.866-1.212,10.021-2.807
	c2.645-0.141,4.788-1.514,6.954-2.84c1.791-0.482,3.541-1.08,5.24-1.828c1.766-0.532,3.399-1.365,5.021-2.225
	c1.157-0.547,2.309-1.104,3.434-1.716c2.166-1.404,5.127-0.446,7.107-2.402c2.072-1.103,5.425-0.4,5.672-4.053
	c-0.021-0.368,0.093-0.691,0.336-0.969c2.883-1.894,5.766-3.788,8.648-5.682c-2.824,3.759-0.283,8.695-3.161,12.558
	c-3.222,4.327-7.188,7.129-12.216,8.757c-1.631,0.528-3.129,1.467-4.688,2.218c-6.498,4.737-13.963,7.668-21.135,11.107
	c-6.463,3.101-13.271,5.453-19.795,8.44C174.45,162.636,172.897,162.935,171.253,162.872z"/>
<path fill-rule="evenodd" clip-rule="evenodd" fill="#AF8F58" d="M190.212,125.353c1.194-0.02,2.149-1.193,3.61-0.667
	c-0.192,0.923-1.989,1.171-1.244,2.384c0.773,1.259,1.926-1.054,2.854,0.289c-0.04,1.547-1.648,1.35-2.485,2.023
	c-0.503,0.405-1.556,0.895-1.164,1.397c2.617,3.354-1.475,2.614-2.323,3.738c-0.786,1.043-1.793,1.062-1.226-0.812
	c0.12-0.398-0.322-0.716-0.798-0.6c-1.904,0.469-3.302,1.807-4.677,3.041c-0.919,0.824-4.237,0.501-2.027,3.375
	c0.064,0.084-1.397,1.34-2.147,2.049c-0.357,0.689-0.831,1.163-1.694,0.927c-0.234-0.26-0.406-0.558-0.511-0.885
	c-1.314-2.085-1.625,0.677-2.531,0.535c-1.875,0.773-3.566,1.963-5.63,2.403c2.162,0.035,3.569-2.208,5.823-1.735
	c0.593,0.381,0.796,0.897,0.567,1.574c-7.33,7.871-22.87,10.815-32.511,6.172c-2.278-1.199-4.306-2.789-6.435-4.221
	c-0.917-0.616-2.599-0.979-1.71-2.6c0.746-1.36,2.126-0.778,3.295-0.472c0.673,0.176,1.197,0.613,1.696,1.069
	c0.626,0.724,1.51,1.069,2.314,1.535c0.669,0.539,1.299,1.137,2.107,1.381c-0.039-0.022,0.179,0.134,0.179,0.134
	s0.055-0.262,0.011-0.268c-0.453-0.06-0.79-0.282-1.155-0.476c-0.907-0.866-2.124-1.219-3.091-1.973
	c-1.118-1.151-2.443-2.239-1.854-4.125c0.544-1.735,1.106-3.626-1.012-4.511c-2.427-1.012-4.649-3.618-7.73-1.513
	c-0.661,0.451-1.372,0.844-2.227,0.792c-1.392-0.532-2.175-1.505-2.193-3.027c0.338-0.995,0.361-1.889-0.812-2.387
	c-0.285-0.215-0.495-0.482-0.648-0.801c0.519-1.402-2.305-3.479,0.871-4.351c1.336,0.126,2.664,0.356,4.016,0.288
	c1.956-0.099,4.048-0.429,4.601-2.519c0.602-2.273-0.947-3.682-2.972-4.615c-2.946-1.358-5.264-3.251-5.107-6.93
	c0.136-0.349,0.336-0.658,0.598-0.924c0.289-0.274,0.634-0.488,0.93-0.757c0.477-0.432,1.42-0.807,1.208-1.401
	c-0.179-0.502-1.181,0.057-1.798-0.201c-0.392-0.181-0.607-0.481-0.658-0.906c2.198-5.299,3.551-5.905,9.908-4.464
	c2.894,0.579,4.816,2.108,5.639,5.112c0.593,2.17,2.443,3.172,4.599,3.465c1.828,0.249,3.24-0.503,3.891-2.233
	c0.669-1.782-0.006-3.189-1.667-4.076c-1.186-0.632-2.551-0.973-3.356-2.182c-0.411-0.486-0.822-0.973-1.261-1.493
	c0.966-1.001,2.44,0.64,3.351-0.878c-1.609-3.502-5.46,0.286-7.839-2.387c13.326-2.021,22.902,3.675,31.067,12.818
	c0.352,0.675-0.053,1.005-0.579,1.276c-0.561,0.293-1.118-0.317-1.683-0.015c0.334,0.217,0.669,0.432,1.048,0.603
	c0.314,0.192,0.577,0.423,0.818,0.688c0.667,0.852,1.206,1.791,1.894,2.621c0.564,0.657,1.25,1.171,1.981,1.625
	c1.102,0.839,2.597,0.709,3.715,1.5c0.661,1.889,1.649,2.885,2.585,0.303c1.582-4.36,5.09-6.451,8.906-8.345
	c10.527-5.223,20.883-10.76,30.806-17.069c5.988-3.806,11.466-8.196,15.056-14.498c2.648-4.647,1.437-7.772-3.669-9.235
	c-6.846-1.962-13.689-0.852-20.506,0.302c-6.113,1.036-12.214,2.137-18.319,3.21c-0.224-0.212-0.31-0.437-0.263-0.673
	c0.049-0.242,0.105-0.362,0.171-0.362c12.729-4.1,25.684-6.366,39.109-4.89c5.771,0.635,8.732,3.026,9.596,8.189
	c0.346,2.07,1.302,4.725-2.23,5.398c-0.416,0.079-0.872,0.666-1.062,1.121c-4.48,10.768-14.535,15.926-22.886,22.798
	c-0.662,0.545-1.324,0.755-2.222,0.648c-3.744-0.446-5.349,0.877-5.641,4.557c-0.269,3.4,0.747,5.657,4.737,5.17
	c0.825-0.404,0.937,0.099,0.937,0.74c-4.335,3.38-8.669,6.76-13.445,10.483c-0.54-2.182-0.582-3.72,0.238-5.348
	c1.375-2.725,0.416-4.722-2.258-5.87c-2.812-1.208-6.064,0.15-6.997,2.876c-0.341,0.997-0.224,2.157-1.129,2.938
	c-0.68,1.518-2.141,2.188-3.371,3.112c-6.801,4.028-13.6,8.06-21.164,10.552c-1.592,0.431-3.187,0.305-4.786,0.009
	c-1.62-0.299-3.328-0.604-4.23,1.255c-0.837,1.729-0.487,3.397,0.76,4.867c0.688,0.811,1.652,1.396,2.006,2.461
	c-0.167,2.718,1.499,0.585,2.197,0.689c0.862,0.133,2.283-0.056,1.107-1.649c-0.255-1.89,0.722-3.26,2.27-3.865
	c3.456-1.348,6.789-3.159,10.601-3.398c0.361,0.114,0.683,0.308,0.946,0.578c1.164,2.237,2.031,0.407,2.985-0.239
	c2.516-1.143,4.824-2.585,6.756-4.581c0.271-0.242,0.576-0.437,0.901-0.595c0.994-0.415,2.475-0.396,1.935-2.187
	C187.098,126.45,188.571,125.791,190.212,125.353z"/>
<path fill-rule="evenodd" clip-rule="evenodd" fill="#AF8F58" d="M25.339,143.217c-0.049-1.442-0.072-2.458,1.947-2.973
	c3.002-0.766,5.806-2.312,8.694-3.526c0.257-0.312,0.572-0.55,0.934-0.726c6.929-1.611,13.075-5.199,19.612-7.789
	c0.322-0.178,0.666-0.324,1.01-0.452c1.383-0.544,2.985-0.708,3.828-2.187c-0.014-0.617-0.438-1.202-0.147-1.837
	c1.027-0.553,2.011-1.251,3.285-0.964c1.332,2.005,2.81,0.261,4.223,0.166c3.767-2.444,8.597-3.287,11.219-7.454
	c1.661-1.971,4.172-2.432,6.355-3.369c4.095-1.757,8.13-3.547,11.597-6.409c7.877-3.783,13.667-1.792,18.704,6.436
	c0.342,0.56,0.65,1.142,0.973,1.713c0.25,0.498,0.363,1.057,0.258,1.573c-1.798,8.825,3.569,14.704,8.511,20.765
	c0.885,2.527-0.444,3.324-2.679,3.809c-9.87,2.142-19.798,3.957-29.756,5.624c-5.832,0.976-11.646,2.079-17.563,2.457
	c-4.867,0.196-9.731,0.317-14.594,0.001c-1.401-0.017-2.806,0.036-4.206-0.083c-1.489-0.504-2.997-0.901-4.595-0.735
	c-1.125-0.019-2.252,0.039-3.37-0.139c-3.15-0.604-6.332-0.742-9.53-0.674c-4.923,0.165-9.529-1.909-14.412-2.03
	C25.182,144.103,25.083,143.704,25.339,143.217z"/>
<path fill-rule="evenodd" clip-rule="evenodd" fill="#78592F" d="M221.556,72.945c1.234,0.14,3.006,0.203,4.715,0.561
	c5.429,1.139,5.703,2.312,1.882,6.591c-9.843,11.023-22.844,17.155-35.932,23.064c-4.209,1.899-8.446,3.657-12.107,6.488
	c-2.146,1.658-3.841,1.687-5.38-0.677c-3.885-5.964-11.029-8.747-14.564-15.169c-1.584-2.879-2.429-4.206,1.646-5.454
	c5.146-1.575,10.457-2.98,15.332-4.935c4.057-1.627,7.92-3.935,12.313-5.054C199.843,75.718,210.33,73.778,221.556,72.945z"/>
<path fill-rule="evenodd" clip-rule="evenodd" fill="#AF8F58" d="M22.864,178.323c-3.171-1.495-6.39-2.897-9.496-4.518
	c-2.032-1.059-3.877-2.451-4.302-5.406c7.321,2.033,14.389,4.146,21.534,5.953c23.825,6.028,48.035,8.819,72.561,6.934
	c20.528-1.578,41.008-3.964,60.022-12.848c3.299-1.54,6.533-3.22,9.796-4.836c2.933-2.529,6.692-3.386,10.14-4.781
	c9.267-3.751,18.378-7.804,27.195-12.514c2.619-1.399,5.359-2.458,8.258-3.102c6.616-2.262,13.277-4.402,19.823-6.852
	c2.289-0.855,2.585,0.018,2.604,1.835c0.034,3.115-0.6,5.634-3.801,7.328c-9.056,4.79-17.85,10.146-28.45,10.843
	c-2.571,1.815-5.652,0.39-8.358,1.325c-6.201,1.516-11.659,4.731-17.263,7.607c-8.484,3.763-16.79,7.938-25.538,11.097
	c-1.246,0.163-2.302,0.826-3.425,1.316c-4.232,1.484-8.601,2.446-12.971,3.406c-3.504,0.836-7.113,0.891-10.65,1.483
	c-1.852-0.017-3.697-0.003-5.479,0.619c-14.164,0.888-28.212,3.191-42.418,3.466c-10.446,0.201-20.758-1.349-31.084-2.706
	c-7.63-1.004-15.375-1.2-22.871-3.129C26.65,180.319,24.312,180.295,22.864,178.323z"/>
<path fill-rule="evenodd" clip-rule="evenodd" fill="#AF8F58" d="M111.027,95.677c-1.894-2.304-1.224-3.78,0.87-5.898
	c4.161-4.207,8.345-8.144,14.317-9.397c8.923-1.873,16.094,1.927,22.614,7.409c3.437,2.89,6.082,6.485,8.539,10.721
	c-6.648-2.991-13.19-4.192-20.095-2.66c-1.287,0.285-2.86,0.423-4.019-0.055c-4.423-1.83-8.476-0.68-12.535,1.047
	C115.323,99.066,112.987,98.785,111.027,95.677z"/>
<path fill-rule="evenodd" clip-rule="evenodd" fill="#AF8F58" d="M154.116,179.839c-6.397,4.204-13.613,5.868-21.079,6.393
	c-17.958,1.264-35.937,2.225-53.892,3.515c-10.938,0.785-21.576-1.273-32.283-2.8c-8.154-1.161-16.441-1.479-24.417-3.789
	c-4.516-1.31-8.443-3.507-11.659-8.04c3.963,1.165,6.746,3.618,10.271,4.012c13.531,3.45,27.451,4.349,41.228,6.118
	c13.465,1.73,26.967,1.569,40.483-0.223c6.542-0.867,13.156-1.389,19.75-1.892c1.819,0.063,3.626-0.008,5.357-0.669
	c1.078-0.181,2.17-0.126,3.257-0.145c1.492,0.104,2.931-0.131,4.317-0.692c2.094-0.014,4.141-0.355,6.152-0.918
	c3.854-0.684,7.586-1.862,11.393-2.75C153.944,178.243,154.395,178.823,154.116,179.839z"/>
<path fill-rule="evenodd" clip-rule="evenodd" fill="#AF8F58" d="M183.472,140.748c12.949-6.598,22.498-17.713,34.315-25.82
	c4.787-3.284,5.715-2.943,7.535,2.56c0.482,1.46-0.137,4.321,3.08,3.645l-0.096-0.107c-2.885,3.126-7.261,3.573-10.593,5.896
	c-1.662,1.891-4.005,2.578-6.207,3.513c-7.39,3.227-14.687,6.643-21.849,10.346c-1.65,0.853-3.29,1.921-5.323,1.383
	C183.733,141.882,183.252,141.528,183.472,140.748z"/>
<path fill-rule="evenodd" clip-rule="evenodd" fill="#020201" d="M123.148,183.815c-20.056,2.405-40.158,5.147-60.349,2.453
	c-13.493-1.8-27.268-2.052-40.359-6.423c-0.487-0.162-0.923-0.475-1.383-0.717c0.602-0.268,1.204-0.537,1.806-0.806
	c17.668,4.238,35.716,5.738,53.752,7.015c13.549,0.96,26.994-1.493,40.478-2.535c2.831-0.22,5.67-0.327,8.505-0.485
	c1.526-0.953,3.325,0.077,4.878-0.67c3.536-0.551,7.071-1.102,10.607-1.653c0.594,0.272,1.031,0.633,0.791,1.381
	c-2.075,0.61-4.157,1.17-6.355,0.997c-1.327,0.757-2.879-0.059-4.218,0.608c-1.021,0.076-2.044,0.153-3.065,0.229
	C126.607,183.968,124.782,183.081,123.148,183.815z"/>
<path fill-rule="evenodd" clip-rule="evenodd" fill="#020201" d="M176.985,142.162c0.534-0.196,1.065-0.393,1.599-0.59
	c0.826,0.534,1.654,1.065,2.48,1.599c0.926-0.915,2-1.418,3.336-1.196c0.869,0.009,1.714,0.055,1.866,1.188
	c-0.146,0.675-0.382,1.22-1.242,0.872c-11.749,4.297-23.292,9.183-35.358,12.582c-3.875,1.091-7.647,2.622-11.725,2.92
	c-0.843,0.365-1.682,0.721-1.742-0.745c4.413-1.436,8.825-2.871,14.029-4.564c-4.092-0.78-7.289-1.511-9.875-3.729
	c0.348-0.6,0.924-0.768,1.557-0.837c12.158,5.49,22.541,0.909,32.562-5.736C175.016,142.916,175.507,141.835,176.985,142.162z"/>
<path fill-rule="evenodd" clip-rule="evenodd" fill="#020201" d="M173.607,135.562c-3.513,1.246-7.059,2.409-10.523,3.779
	c-1.563,0.619-3.338,1.429-2.284,3.779c-1.321,1.108-2.64,2.238-4.428,0.812c-1.697-1.509-3.97-2.452-4.051-5.34
	c-0.115-4.128,2.038-6.124,5.918-4.831c1.624,0.54,3.146,0.355,4.726,0.407c0.804-0.451,1.501-0.466,1.963,0.478
	c-0.674,2.63-3.376,1.61-4.734,2.708c3.406-0.853,6.772-2.261,10.093-3.801c5.102-1.788,9.681-4.562,14.216-7.439
	c1.399-0.887,2.656-2.419,4.675-1.67c0.346,0.303,0.689,0.606,1.035,0.909c-1.135,1.001-2.271,2.002-3.406,3.002
	c0.524,2.166-1.874,1.57-2.5,2.649l0.022-0.019c-2.046,1.782-4.843,2.26-6.92,3.993
	C176.145,135.189,174.977,136.033,173.607,135.562z"/>
<path fill-rule="evenodd" clip-rule="evenodd" fill="#020201" d="M218.572,143.206c-14.73,7.845-29.795,14.939-45.593,20.396
	c-0.575-0.243-1.151-0.487-1.727-0.73c15.39-6.438,30.647-13.169,45.646-20.479C217.265,143.061,217.919,143.133,218.572,143.206z"
	/>
<path fill-rule="evenodd" clip-rule="evenodd" fill="#AF8F58" d="M120.739,114.567c-5.723-7.455-11.432-14.921-17.188-22.35
	c-0.734-0.948-1.604-1.884-2.61-2.502c-1.055-0.648-1.975-1.297-1.155-2.478c0.989-1.424,2.333-0.552,3.082,0.275
	c1.626,1.795,2.996,3.821,4.482,5.743c0.902,1.166,1.827,2.314,2.741,3.47c3.921,2.938,5.961,7.395,8.964,11.077
	c2.407,2.562,4.462,5.422,6.85,7.999c0.645,0.697,1.248,1.426,1.581,2.332c0.384,1.04,0.735,2.169-0.248,3.001
	c-1.146,0.972-1.977,0.014-2.743-0.744c-0.576-0.569-1.088-1.201-1.567-1.854C122.094,117.273,121.207,116.035,120.739,114.567z"/>
<path fill-rule="evenodd" clip-rule="evenodd" fill="#020201" d="M118.231,108.208c-2.713-3.827-5.427-7.654-8.14-11.482
	c0.311-0.349,0.624-0.699,0.936-1.049c1.25,1.836,2.918,1.785,4.888,1.361c1.543-0.333,3.198-0.149,4.804-0.195
	c0.662,0.867,1.659,0.578,2.527,0.735c-1.888,3.019-4.651,2.283-7.21,2.15c1.235,1.505,2.94,0.261,4.503-0.038
	c5.5-1.054,10.912-1.608,15.766,2.107c0.15,1.385-1.083,1-1.736,1.358c-4.535-1.611-7.962-0.629-9.759,4.169
	c-0.336,0.216-0.695,0.264-1.076,0.145c-0.507-0.315-0.849-0.743-0.925-1.351c-0.048-0.888,0.567-1.678,0.53-2.862
	c-1.944,0.5-4.331-0.048-3.902,3.123C119.275,107.15,118.951,107.811,118.231,108.208z"/>
<path fill-rule="evenodd" clip-rule="evenodd" fill="#020201" d="M134.568,103.157c0.646-0.297,1.293-0.594,1.938-0.89
	c0.688-0.55,1.44-0.535,2.222-0.255c1.976,1.163,2.978,3.417,5.095,4.861c-0.065-1.583-1.674-2.174-1.316-3.539
	c0.342-0.309,0.685-0.617,1.027-0.926c0.623,0.221,1.23,0.541,1.873,0.646c3.016,0.496,5.066,1.818,4.727,5.284
	c-0.242,2.467-2.023,3.626-4.104,3.681c-3.009,0.079-6.447-0.465-6.969-4.039C138.615,104.93,136.938,103.947,134.568,103.157z"/>
<path fill-rule="evenodd" clip-rule="evenodd" fill="#AF8F58" d="M138.551,102.463c-0.682-0.066-1.363-0.131-2.045-0.197
	c-5.632-2.36-11.367-3.187-17.269-1.084c-2.011,0.717-3.679,0.634-4.893-1.821c3.082-0.501,6.174-0.367,8.902-1.783
	c6.208-1.916,11.477-0.028,16.215,4.007C139.634,102.373,139.393,102.73,138.551,102.463z"/>
<path fill-rule="evenodd" clip-rule="evenodd" fill="#020201" d="M157.262,175.739c8.468-3.752,16.937-7.504,25.404-11.256
	c0.525,0.178,0.977,0.428,1.046,1.057c-0.558,1.703-2.338,1.298-3.471,2.011c-2.732,2.648-6.468,2.933-9.803,4.164
	c-1.189,1.778-3.212,1.893-4.989,2.496c-2.165,0.763-3.414,3.964-6.444,2.422C158.28,176.613,157.634,176.444,157.262,175.739z"/>
<path fill-rule="evenodd" clip-rule="evenodd" fill="#AF8F58" d="M180.241,167.551c1.108-0.771,2.217-1.544,3.325-2.314
	c6.266-4.104,12.965-7.151,20.453-8.13c1.557-0.203,3.258-0.399,4.725,0.61c0.271,0.089,0.543,0.177,0.812,0.266
	c0.578,0.262,1.01,0.607,0.782,1.339c-8.958,0.452-17.191,3.488-25.23,7.162C183.529,167.203,182.069,168.122,180.241,167.551z"/>
<path fill-rule="evenodd" clip-rule="evenodd" fill="#AF8F58" d="M238.785,115.939c2.63-6.114-0.378-12.911,2.394-19.01
	c1.332,4.016,0.768,8.083,1.052,12.091C242.516,113.06,242.606,113.053,238.785,115.939z"/>
<path fill-rule="evenodd" clip-rule="evenodd" fill="#020201" d="M97.896,105.696c-0.789,2.613-2.999,3.789-5.203,4.74
	c-4.193,1.811-8.493,3.373-12.749,5.038c-0.775-1.162-0.378-2.204,0.72-2.658c3.252-1.348,6.283-3.277,9.836-3.857
	c0.962-0.641,1.924-1.28,2.85-1.974c0.767-0.899,1.836-1.39,2.775-2.059C96.715,105.183,97.306,105.439,97.896,105.696z"/>
<path fill-rule="evenodd" clip-rule="evenodd" fill="#020201" d="M125.481,136.075c-6.367-6.083-10.871-12.828-7.909-22.23
	c0.448,0.81,0.896,1.62,1.344,2.429c0.551,0.342,0.684,0.878,0.691,1.473c-0.253,1.602-0.542,3.206,0.037,4.803
	c0.363,1.53,0.902,2.961,2.214,3.965c1.018,0.616,0.669,1.979,1.489,2.704l-0.107-0.068c0.392,0.929,2.196,1.025,1.521,2.581
	c-0.137,1.48,1.499,1.983,1.782,3.231C126.416,135.549,126.068,135.927,125.481,136.075z"/>
<path fill-rule="evenodd" clip-rule="evenodd" fill="#020201" d="M57.279,128.524c-6.571,3.331-12.982,7.07-20.479,8.05
	c-0.457-0.882,0.221-1.199,0.783-1.574l0.052-0.041c0.752-1.47,2.386-1.264,3.581-1.891c0.841-0.578,1.986-0.482,2.746-1.241
	c0.431-0.293,0.862-0.588,1.293-0.883c1.313-0.028,2.363-0.869,3.586-1.173c1.011-0.391,1.897-0.998,2.785-1.611
	c1.118-0.273,2.127-0.816,3.176-1.262C56.313,126.4,57.759,125.999,57.279,128.524z"/>
<path fill-rule="evenodd" clip-rule="evenodd" fill="#AF8F58" d="M229.859,97.554c-3.617,3.059-7.146,6.233-10.884,9.137
	c-2.621,2.037-5.527,3.708-9.028,3.905c-0.296-1.514,0.865-1.679,1.585-2.09c5.033-2.875,9.969-5.875,14.327-9.75
	c0.866-0.77,1.936-1.454,3.235-1.418C229.413,97.188,229.667,97.261,229.859,97.554z"/>
<path fill-rule="evenodd" clip-rule="evenodd" fill="#AF8F58" d="M189.177,124.444c-5.986,3.647-11.705,7.799-18.528,9.874
	c-0.751,0.403-1.089,0.015-1.275-0.663c0.516-1.847,2.265-2.173,3.654-2.895c3.951-2.052,7.701-4.447,11.559-6.657
	c1.144-1.081,2.515-1.697,4.053-1.971c0.735-0.312,1.471-0.625,2.206-0.937c0.83-0.249,1.047,0.082,0.8,0.848
	C190.822,122.845,189.999,123.645,189.177,124.444z"/>
<path fill-rule="evenodd" clip-rule="evenodd" fill="#020201" d="M208.744,157.717c-8.619-0.035-16.197,3.397-23.704,7.084
	c-0.453,0.222-0.981,0.293-1.474,0.436c-0.3-0.251-0.601-0.502-0.9-0.753c5.46-2.987,10.68-6.528,17.039-7.466
	c3.008-0.578,6.015-0.601,9.02,0.017C208.731,157.263,208.737,157.489,208.744,157.717z"/>
<path fill-rule="evenodd" clip-rule="evenodd" fill="#AF8F58" d="M237.562,103.636c-3.577,3.238-6.841,6.208-10.131,9.15
	c-0.412,0.368-0.765,1.286-1.539,0.555c-0.46-0.436-0.957-0.936-0.698-1.734c0.481-1.494,9.652-8.422,11.311-8.478
	C236.733,103.121,236.972,103.344,237.562,103.636z"/>
<path fill-rule="evenodd" clip-rule="evenodd" fill="#AF8F58" d="M91.359,101.667c15.519-2.298,15.519-2.298,17.171,0.792
	c-4.98,0.095-9.821,0.058-14.598,0.815c-1.054,0.167-1.766-0.509-2.567-0.975c-0.272-0.138-0.363-0.277-0.275-0.418
	C91.179,101.739,91.268,101.667,91.359,101.667z"/>
<path fill-rule="evenodd" clip-rule="evenodd" fill="#AF8F58" d="M236.027,132.254c1.035-4.031,3.093-7.743,2.888-12.072
	C242.859,121.999,241.507,127.982,236.027,132.254z"/>
<path fill-rule="evenodd" clip-rule="evenodd" fill="#020201" d="M229.859,97.554c-0.276,0.004-0.532-0.068-0.765-0.217
	c-0.047-0.226-0.032-0.449,0.046-0.666c1.999-0.851,3.769-1.977,4.799-3.992c1.381-1.098,2.763-2.196,4.146-3.294
	c0.17-0.373,0.413-0.428,0.727-0.166c2.037,1.35,0.351,2.793,0.104,4.2c-2.612,1.374-3.787,4.863-7.274,4.952
	C231.047,98.099,230.453,97.827,229.859,97.554z"/>
<path fill-rule="evenodd" clip-rule="evenodd" fill="#AF8F58" d="M90.077,98.91c3.271-2.425,6.058-4.492,9.036-6.7
	C98.691,97.936,95.486,100.449,90.077,98.91z"/>
<path fill-rule="evenodd" clip-rule="evenodd" fill="#AF8F58" d="M159.842,82.933c3.82-1.622,7.627-3.277,11.472-4.841
	c0.965-0.393,2.395-0.833,2.812,0.467c0.504,1.564-1.294,1.429-2.101,1.714c-3.654,1.292-7.375,2.394-11.073,3.563
	C160.075,84.16,159.757,83.794,159.842,82.933z"/>
<path fill-rule="evenodd" clip-rule="evenodd" fill="#AF8F58" d="M228.402,121.132c2.544-3.558,5.496-6.745,8.74-10.008
	c0.307,5.336-2.574,8.442-8.836,9.903C228.307,121.025,228.402,121.132,228.402,121.132z"/>
<path fill-rule="evenodd" clip-rule="evenodd" fill="#AF8F58" d="M228.315,124.542c0.022,0.336,0.045,0.672,0.067,1.009
	c-0.721,2.881-3.347,3.003-5.506,3.804c-2.039,1.305-4.262,1.985-6.692,1.978c-0.812-0.393-1.237-1.024-1.189-1.944
	c0.676-1.695,2.328-1.262,3.604-1.652C222.107,127.493,225.002,125.377,228.315,124.542z"/>
<path fill-rule="evenodd" clip-rule="evenodd" fill="#AF8F58" d="M227.626,117.627c0.884-5.196,5.673-7.153,9.198-10.222
	C234.616,111.483,231.216,114.558,227.626,117.627z"/>
<path fill-rule="evenodd" clip-rule="evenodd" fill="#AF8F58" d="M231.642,98.371c2.624-1.357,3.937-4.642,7.274-4.952
	c-2.916,4.556-6.762,7.944-12.491,10.364C227.996,100.945,229.9,99.742,231.642,98.371z"/>
<path fill-rule="evenodd" clip-rule="evenodd" fill="#AF8F58" d="M190.812,72.399c0.031,0.345,0.062,0.69,0.092,1.035
	c-3.574,1.14-7.161,2.239-10.714,3.436c-1.837,0.618-2.438-0.336-2.783-1.79C181.916,74.179,186.365,73.29,190.812,72.399z"/>
<path fill-rule="evenodd" clip-rule="evenodd" fill="#AF8F58" d="M138.551,102.463c0.303-0.293,0.606-0.585,0.91-0.877
	c1.015,0.583,2.029,1.165,3.045,1.749c0.575,0.54,1.142,1.09,1.729,1.617c0.855,0.765,2.541,1.567,1.485,2.75
	c-1.147,1.287-2.806,0.409-3.828-0.765C140.674,105.537,139.655,103.962,138.551,102.463z"/>
<path fill-rule="evenodd" clip-rule="evenodd" fill="#AF8F58" d="M171.876,117.931c-0.761-0.532-1.522-1.064-2.283-1.595
	c1.597-2.184-1.365-2.108-1.661-3.353l0.088,0.094c-0.513-0.526-0.55-1.08-0.094-1.662c0.309-0.315,0.615-0.631,0.926-0.946
	c2.145,2.208,4.289,4.415,6.435,6.622C174.36,118.227,173.047,117.789,171.876,117.931z"/>
<path fill-rule="evenodd" clip-rule="evenodd" fill="#AF8F58" d="M211.15,116.131c-0.312-0.246-0.624-0.493-0.937-0.74
	c1.331-3.564,4.52-4.248,7.711-4.977C216.087,112.844,213.678,114.558,211.15,116.131z"/>
<path fill-rule="evenodd" clip-rule="evenodd" fill="#AF8F58" d="M25.339,143.217c0.071,0.229,0.062,0.453-0.029,0.674
	c0.718,1.642-1.226,1.594-1.609,2.535c0.039,0.729-0.156,1.326-0.909,1.607c-3.564-2.725-3.604-3.03-0.638-4.812
	C23.216,143.221,24.277,143.219,25.339,143.217z"/>
<path fill-rule="evenodd" clip-rule="evenodd" fill="#AF8F58" d="M57.279,128.524c-0.052-2.578-1.623-0.952-2.609-0.942
	c-0.506-0.464-0.437-0.927,0.001-1.389c2.182-0.822,4.363-1.644,6.545-2.466c0.538,0.503,1.076,1.006,1.613,1.509
	c-1.459,1.174-3.61,1.323-4.642,3.131C57.885,128.42,57.583,128.473,57.279,128.524z"/>
<path fill-rule="evenodd" clip-rule="evenodd" fill="#AF8F58" d="M102.372,93.856c0.346,2.125-0.127,3.771-2.119,4.508
	c-0.403,0.149-1.431-0.226-1.425-0.313C98.966,95.833,101.192,95.292,102.372,93.856z"/>
<path fill-rule="evenodd" clip-rule="evenodd" fill="#020201" d="M22.154,143.222c-1.255,0.714-3.215,1.294-0.63,2.829
	c0.793,0.471,1.827,0.688,1.268,1.982c-2.163,0.636-3.144-0.93-4.24-2.278C19.793,144.968,19.827,142.463,22.154,143.222z"/>
<path fill-rule="evenodd" clip-rule="evenodd" fill="#020201" d="M218.6,127.736c-0.572,1.602-2.61,0.443-3.328,1.77
	c-0.539,1.004-1.418,1.381-2.514,1.361c-0.81-0.153-1.626-0.305-1.571-1.417c2.276-0.583,4.037-2.496,6.527-2.53
	C218.009,127.192,218.303,127.465,218.6,127.736z"/>
<path fill-rule="evenodd" clip-rule="evenodd" fill="#AF8F58" d="M159.842,82.933c0.37,0.301,0.741,0.602,1.11,0.903
	c-1.927,1.521-4.399,1.281-7.323,2.92C155.23,83.078,157.955,83.784,159.842,82.933z"/>
<path fill-rule="evenodd" clip-rule="evenodd" fill="#AF8F58" d="M10.587,161.089c0.785,2.574,1.261,4.135,1.795,5.887
	C9.276,165.676,9.276,165.676,10.587,161.089z"/>
<path fill-rule="evenodd" clip-rule="evenodd" fill="#AF8F58" d="M238.19,134.823c0.275-1.073,0.26-1.349,0.389-1.46
	c1.143-0.989,1.26-3.053,3.222-3.134c0.222-0.009,0.702,0.597,0.665,0.861C242.175,133.188,240.326,133.494,238.19,134.823z"/>
<path fill-rule="evenodd" clip-rule="evenodd" fill="#020201" d="M68.725,122.928c-0.963,0.654-1.913,1.328-2.893,1.954
	c-0.692,0.442-1.649,0.788-2.041-0.059c-0.22-0.476,0.445-1.361,0.71-2.062c0,0-0.127,0.053-0.127,0.053
	c1.123-0.579,2.247-0.808,3.371-0.004C68.072,122.85,68.398,122.889,68.725,122.928z"/>
<path fill-rule="evenodd" clip-rule="evenodd" fill="#AF8F58" d="M67.992,121.466c0.04-2.256,1.687-3.285,3.455-4.748
	c1.06,3.698-1.822,3.707-3.538,4.65L67.992,121.466z"/>
<path fill-rule="evenodd" clip-rule="evenodd" fill="#AF8F58" d="M238.812,89.219c-0.251,0.018-0.492,0.072-0.727,0.166
	c-2.124-1.715-1.492-3.143,0.478-4.435C240.489,86.258,239.01,87.778,238.812,89.219z"/>
<path fill-rule="evenodd" clip-rule="evenodd" fill="#020201" d="M157.262,175.739c0.677,0.11,1.389,0.151,1.743,0.893
	c-0.477,1.324-1.359,1.396-2.459,0.799c-0.441,0.438-0.972,0.605-1.587,0.514c-0.58-0.216-1.039-0.514-0.821-1.254
	C155.179,176.374,156.22,176.056,157.262,175.739z"/>
<path fill-rule="evenodd" clip-rule="evenodd" fill="#020201" d="M171.876,117.931c0.728-1.939,2.34-0.289,3.41-0.84
	c0.752,0.333,1.852,0.507,0.76,1.675C174.498,119.278,173.042,119.328,171.876,117.931z"/>
<path fill-rule="evenodd" clip-rule="evenodd" fill="#AF8F58" d="M109.219,85.4c0.611,2.374-0.15,3.604-2.123,4.647
	C106.828,88.014,107.517,86.753,109.219,85.4z"/>
<path fill-rule="evenodd" clip-rule="evenodd" fill="#020201" d="M208.725,157.034c-3.008-0.006-6.013-0.01-9.02-0.017
	c2.93-1.371,6.012-0.653,9.044-0.657C208.741,156.585,208.733,156.811,208.725,157.034z"/>
<path fill-rule="evenodd" clip-rule="evenodd" fill="#AF8F58" d="M79.021,110.711c1.278-2.82,3.079-3.038,5.361-2.342
	C83.001,109.762,81.287,110.101,79.021,110.711z"/>
<path fill-rule="evenodd" clip-rule="evenodd" fill="#AF8F58" d="M233.939,92.679c-0.419,2.75-1.953,4.159-4.799,3.992
	C230.433,94.971,232.203,93.846,233.939,92.679z"/>
<path fill-rule="evenodd" clip-rule="evenodd" fill="#020201" d="M120.739,114.567c1.201,0.794,2.289,1.674,2.444,3.253
	c0.202,0.203,0.283,0.416,0.244,0.641c-0.041,0.231-0.091,0.347-0.15,0.348c-0.81,0.367-1.445-0.034-2.074-0.47
	c-0.83-0.752-1.61-1.536-1.449-2.803C120.082,115.213,120.41,114.89,120.739,114.567z"/>
<path fill-rule="evenodd" clip-rule="evenodd" fill="#020201" d="M188.639,122.133c-0.956,1.11-2.184,1.808-3.533,2.321
	c-0.569-0.095-0.95-0.407-1.104-0.973c0.977-1.085,2.194-1.794,3.559-2.271C187.92,121.518,188.279,121.826,188.639,122.133z"/>
<path fill-rule="evenodd" clip-rule="evenodd" fill="#020201" d="M165.449,174.211c1.663-0.832,3.326-1.664,4.989-2.496
	C169.678,174.352,167.66,174.476,165.449,174.211z"/>
<path fill-rule="evenodd" clip-rule="evenodd" fill="#AF8F58" d="M210.339,159.321c-0.26-0.447-0.521-0.893-0.782-1.339
	c1.719,0,3.436,0,5.153,0c0.039,0.19,0.079,0.383,0.118,0.575C213.332,158.812,211.836,159.066,210.339,159.321z"/>
<path fill-rule="evenodd" clip-rule="evenodd" fill="#AF8F58" d="M41.669,133.432c-1.345,0.509-2.688,1.018-4.033,1.527
	c0.2-1.869,1.52-2.34,3.103-2.481C41.259,132.59,41.562,132.915,41.669,133.432z"/>
<path fill-rule="evenodd" clip-rule="evenodd" fill="#AF8F58" d="M91.359,101.667c0.015,0.21,0.017,0.421,0.006,0.632
	c-1.582,0.24-3.163,0.48-5.553,0.842C87.872,100.858,89.707,101.701,91.359,101.667z"/>
<path fill-rule="evenodd" clip-rule="evenodd" fill="#AF8F58" d="M119.754,115.536c0.421,0.818,0.842,1.636,1.263,2.454
	c0.037,0.395-0.081,0.73-0.375,1.001c-0.36,0.147-0.731,0.186-1.114,0.12c-0.576-0.27-0.929-0.642-0.611-1.324
	c0-0.504,0-1.008,0-1.513C119.196,116.028,119.474,115.782,119.754,115.536z"/>
<path fill-rule="evenodd" clip-rule="evenodd" fill="#020201" d="M37.583,135c-0.261,0.525-0.521,1.05-0.783,1.574
	c-0.273,0.048-0.547,0.096-0.82,0.144c-0.222-1.358-1.491-0.661-2.272-1.088C34.907,134.433,36.187,134.349,37.583,135z"/>
<path fill-rule="evenodd" clip-rule="evenodd" fill="#AF8F58" d="M96.125,104.926c-0.288,1.219-1.137,1.934-2.205,2.452
	c-0.938,0.287-1.163-0.143-0.982-0.979C93.531,104.893,94.734,104.707,96.125,104.926z"/>
<path fill-rule="evenodd" clip-rule="evenodd" fill="#AF8F58" d="M184.324,142.385c-1.087,0.263-2.174,0.524-3.26,0.786
	c-0.346-1.948,1.285-1.932,2.407-2.423c0.373,0.325,0.744,0.649,1.117,0.974C184.66,142.006,184.572,142.229,184.324,142.385z"/>
<path fill-rule="evenodd" clip-rule="evenodd" fill="#AF8F58" d="M41.669,133.432c-0.31-0.318-0.621-0.636-0.931-0.954
	c0.884-1.161,2.142-0.473,3.224-0.65C43.742,133.141,42.687,133.259,41.669,133.432z"/>
<path fill-rule="evenodd" clip-rule="evenodd" fill="#AF8F58" d="M48.952,130.136c-1.16,0.601-2.09,2.252-3.696,0.809
	c0.789-0.854,1.465-1.931,2.917-1.49C48.542,129.555,48.803,129.783,48.952,130.136z"/>
<path fill-rule="evenodd" clip-rule="evenodd" fill="#AF8F58" d="M48.952,130.136c-0.26-0.228-0.52-0.454-0.78-0.682
	c1.077-0.55,2.154-1.101,3.231-1.65c0.301,0.159,0.406,0.327,0.318,0.505c-0.091,0.182-0.184,0.273-0.281,0.273
	C50.958,129.654,50.043,130.036,48.952,130.136z"/>
<path fill-rule="evenodd" clip-rule="evenodd" fill="#AF8F58" d="M51.441,128.582c-0.021-0.26-0.034-0.52-0.037-0.778
	c1.089-0.536,2.178-1.074,3.268-1.61c0,0.462-0.001,0.926-0.001,1.389C53.742,128.395,52.647,128.665,51.441,128.582z"/>
<path fill-rule="evenodd" clip-rule="evenodd" fill="#AF8F58" d="M154.996,177.45c0.517-0.006,1.033-0.014,1.55-0.02
	c0.562,2.186-1.347,1.881-2.43,2.408c-0.276-0.471-0.553-0.941-0.829-1.412C153.518,177.507,154.507,177.915,154.996,177.45z"/>
<path fill-rule="evenodd" clip-rule="evenodd" fill="#AF8F58" d="M92.938,106.399c0.328,0.326,0.656,0.652,0.982,0.979
	c-0.904,1.037-1.984,1.695-3.421,1.581C90.67,107.493,91.99,107.124,92.938,106.399z"/>
<path fill-rule="evenodd" clip-rule="evenodd" fill="#AF8F58" d="M67.746,122.811c-1.124,0.001-2.247,0.003-3.371,0.004
	c1.043-0.874,1.935-2.15,3.611-1.355c0.006,0.006-0.09-0.106-0.083-0.099C67.854,121.849,67.8,122.33,67.746,122.811z"/>
<path fill-rule="evenodd" clip-rule="evenodd" fill="#AF8F58" d="M245.659,109.485c0.912,1.696,0.907,2.758,0.089,3.87
	C244.788,112.257,245.428,111.194,245.659,109.485z"/>
<path fill-rule="evenodd" clip-rule="evenodd" fill="#AF8F58" d="M191.645,122.044c-0.266-0.283-0.532-0.565-0.8-0.848
	c0.677-0.657,1.633-1.976,2.305-1.135C194.067,121.211,192.418,121.539,191.645,122.044z"/>
<path fill-rule="evenodd" clip-rule="evenodd" fill="#020201" d="M23.701,146.426c-0.472-1.485,1.247-1.58,1.609-2.535
	c5.13-1.176,9.652,2.405,14.699,1.879c3.321,0.791,6.742-0.226,10.063,0.564c0.993,0.084,1.986,0.167,2.98,0.251
	c1.355,0.67,2.912-0.11,4.263,0.593c1.296,0.075,2.593,0.15,3.89,0.226c5.159,0.456,10.318,0.468,15.477-0.009
	c15.673-2.199,31.232-5.032,46.737-8.195c2.052-0.42,2.999-1.001,2.063-3.124c0.354-0.371,0.708-0.741,1.062-1.112
	c3.493-2.641,8.141-2.438,11.438,0.572c0.904,0.826,1.978,2.196,1.066,3.145c-2.326,2.427-0.243,4.271,0.382,6.333l0.108-0.13
	c-1.823,0.117-3.283-1.772-5.832-0.891c2.979,2.059,5.593,3.863,8.205,5.668c-0.313,0.661-0.893,0.829-1.557,0.837
	c-3.374-1.489-5.947-4.556-9.853-4.997c-1.473-1.231-4.255,1.375-5.084-1.736c1.305-1.396,2.784,0.376,4.219-0.259
	c1.17-0.519,2.514-0.873,2.229-2.376c-0.293-1.543-1.617-1.485-2.933-1.228c-10.474,2.047-20.938,4.163-31.439,6.058
	c-12.539,2.262-25.107,4.407-37.939,2.787c-1.4-0.624-2.964,0.05-4.367-0.553c-1.262-0.086-2.522-0.171-3.784-0.256
	c-2.26-0.718-4.644,0.133-6.906-0.551c-4.414,0.158-8.786-0.13-13.039-1.409C28.802,145.179,26.255,145.75,23.701,146.426z"/>
<path fill-rule="evenodd" clip-rule="evenodd" fill="#020201" d="M136.199,158.791c0.581,0.248,1.162,0.497,1.742,0.745
	c-3.867,1.997-8.208,2.258-12.319,3.357c-1.792,2.466-4.467,0.813-6.655,1.43c-15.417,1.387-30.892,1.192-46.341,1.558
	c-7.996,0.188-15.957-0.931-23.688-3.154c-3.9-1.123-7.658-2.623-10.607-5.598c-0.161-0.896,0.136-1.298,1.081-0.996
	c10.851,7.102,23.19,8.012,35.528,7.762c13.012-0.264,26.084,0.556,39.033-1.162C121.424,161.745,128.794,160.125,136.199,158.791z"
	/>
<path fill-rule="evenodd" clip-rule="evenodd" fill="#020201" d="M119.057,145.632c-1.197,2.697-3.971,1.774-5.899,2.17
	c-6.869,1.411-13.857,2.239-20.802,3.276c-0.939,0.14-1.909,0.312-2.621-0.595c-0.29-0.164-0.388-0.331-0.295-0.502
	c0.093-0.171,0.187-0.258,0.283-0.258c6.684-1.094,13.368-2.188,20.052-3.282c1.706-0.279,3.41-0.567,5.115-0.853
	C116.284,145.059,117.674,145.006,119.057,145.632z"/>
<path fill-rule="evenodd" clip-rule="evenodd" fill="#020201" d="M89.723,149.724c0.002,0.254,0.006,0.506,0.012,0.76
	c-1.277,0.32-2.555,0.64-3.833,0.96c-1.934,0.73-4.026-0.164-5.958,0.582c-0.715,0.079-1.431,0.158-2.146,0.237
	c-2.779,0.764-5.671-0.195-8.45,0.559c-2.708,0.313-5.41,1.524-8.133,0.066c1.729-2.487,4.48-0.255,6.499-1.409
	c1.025-0.073,2.052-0.146,3.078-0.219c1.902-0.799,3.982,0.148,5.889-0.603C80.975,149.6,85.335,149.479,89.723,149.724z"/>
<path fill-rule="evenodd" clip-rule="evenodd" fill="#020201" d="M39.411,156.133c-0.36,0.331-0.721,0.664-1.081,0.996
	c-1.073-0.871-2.146-1.743-3.219-2.614c-0.481-1.192-1.051-2.106-2.345-0.747c-0.071-0.42-0.143-0.84-0.213-1.26
	c-0.877-2.911-3.15-3.535-5.802-3.537c-0.172-0.113-0.343-0.227-0.515-0.339c0.174-0.211,0.348-0.422,0.522-0.634
	c1.525-0.517,3.055-0.436,4.585-0.026c2.361,1.357,5.605,0.297,7.687,2.848C34.101,152.995,38.669,154.386,39.411,156.133z"/>
<path fill-rule="evenodd" clip-rule="evenodd" fill="#020201" d="M53.888,152.699c-4.196,0.543-8.206-0.426-12.202-1.499
	c0.049-0.451,0.098-0.901,0.146-1.352c4.073,0.49,8.146,0.98,12.218,1.472C53.997,151.78,53.943,152.239,53.888,152.699z"/>
<path fill-rule="evenodd" clip-rule="evenodd" fill="#020201" d="M185.024,144.034c0.305-0.277,0.61-0.555,0.915-0.831
	c2.87-1.598,5.482-3.927,9.162-3.227c0.173,0.366,0.146,0.713-0.111,1.034C191.934,142.892,189.335,146.288,185.024,144.034z"/>
<path fill-rule="evenodd" clip-rule="evenodd" fill="#020201" d="M38.369,165.192c-3.828-1.477-6.545-3.952-7.332-8.162
	c-0.508-0.86-0.72-1.591,0.705-1.599c1.416,3.329,2.523,6.911,6.605,8.053C38.805,164.048,38.807,164.618,38.369,165.192z"/>
<path fill-rule="evenodd" clip-rule="evenodd" fill="#020201" d="M67.713,151.479c-1.892,1.737-4.604-0.311-6.499,1.409
	c-2.176,0-4.353,0-6.528,0C58.909,149.858,63.401,152.056,67.713,151.479z"/>
<path fill-rule="evenodd" clip-rule="evenodd" fill="#020201" d="M125.417,143.764c1.248,1.885,3.728,0.17,5.084,1.736
	c-2.382,0.275-4.825-0.407-7.177,0.599c-0.938,0.401-2.482,0.867-2.769-0.478c-0.359-1.686,1.417-1.417,2.457-1.634
	C123.795,143.824,124.614,143.832,125.417,143.764z"/>
<path fill-rule="evenodd" clip-rule="evenodd" fill="#020201" d="M222.597,128.621c2.02-0.853,4.155-1.485,5.786-3.07
	c2.241,1.833-0.108,2.992-0.974,3.382c-1.438,0.65-3.009,1.684-4.813,1.113C222.088,129.571,222.155,129.096,222.597,128.621z"/>
<path fill-rule="evenodd" clip-rule="evenodd" fill="#020201" d="M89.035,171.768c-3.52,1.196-7.094,0.831-10.697,0.356
	c2.265-1.575,4.842-1.068,7.322-1.16C86.642,171.835,88.099,170.707,89.035,171.768z"/>
<path fill-rule="evenodd" clip-rule="evenodd" fill="#020201" d="M194.99,141.011c-0.082-0.339-0.164-0.676-0.246-1.015
	c0.829-1.956,2.732-2.383,4.426-3.119c0.879-0.175,1.709-0.117,2.417,0.514c0.234,0.412,0.217,0.813-0.053,1.203
	C199.573,139.996,197.772,141.828,194.99,141.011z"/>
<path fill-rule="evenodd" clip-rule="evenodd" fill="#020201" d="M31.742,155.432c-0.235,0.534-0.47,1.064-0.705,1.599
	c-1.597-2.318-0.917-4.583,0.214-6.845c-1.32-1.205-3.244,0.008-4.5-1.215c2.868-0.352,5.57-0.433,5.802,3.537
	C31.354,153.226,32.042,154.466,31.742,155.432z"/>
<path fill-rule="evenodd" clip-rule="evenodd" fill="#020201" d="M222.597,128.621c0,0.475-0.001,0.95-0.001,1.426
	c-1.224,3.761-5.044,0.785-6.983,2.69c-0.862,0.376-1.293-0.025-1.502-0.831c0.139-1.253,0.855-1.5,1.938-1.113
	C218.487,130.841,220.539,129.721,222.597,128.621z"/>
<path fill-rule="evenodd" clip-rule="evenodd" fill="#020201" d="M52.259,169.938c-2.553-0.014-5.251,0.694-7.37-1.48
	c-0.252-0.742,0.196-1.081,0.772-1.348c0.384-0.103,0.777-0.137,1.174-0.12c1.859,0.584,3.826,0.497,5.719,0.888
	c0.358,0.19,0.606,0.48,0.762,0.853C53.35,169.471,52.805,169.705,52.259,169.938z"/>
<path fill-rule="evenodd" clip-rule="evenodd" fill="#020201" d="M74.264,169.145c-1.384,0.068-2.82,0.454-4.842-0.763
	c4.086-1.421,7.535-0.312,10.88-0.506c0.985-0.057,0.692,1.072-0.393,1.281C78.028,168.828,76.146,168.64,74.264,169.145z"/>
<path fill-rule="evenodd" clip-rule="evenodd" fill="#020201" d="M52.259,169.938c0.333-0.271,0.667-0.544,1-0.813
	c1.315-1.126,2.609-0.477,3.903,0.051c1.853,0.422,3.705,0.845,6.492,1.48C59.109,171.353,55.713,170.267,52.259,169.938z"/>
<path fill-rule="evenodd" clip-rule="evenodd" fill="#020201" d="M44.031,163.686c1.921,1.204,4.913,0.369,6.006,3.15
	c-0.834,0.921-1.836,0.768-2.863,0.446c-1.511-0.503-3.235-0.631-4.093-2.3C42.942,164.218,43.484,163.949,44.031,163.686z"/>
<path fill-rule="evenodd" clip-rule="evenodd" fill="#020201" d="M212.042,134.333c-1.475,1.127-3.081,1.958-4.938,2.246
	c-0.628-0.212-1.08-0.562-1.039-1.309c1.106-2.223,3.062-2.56,5.257-2.371C211.91,133.203,212.374,133.568,212.042,134.333z"/>
<path fill-rule="evenodd" clip-rule="evenodd" fill="#AF8F58" d="M46.523,166.812c1.171,0.008,2.343,0.017,3.514,0.024l0.328-0.042
	c1.975,0.277,4.099-0.535,5.924,0.818c0.058,0.267,0.07,0.535,0.038,0.806c-1.115,0.701-2.276,0.503-3.443,0.177
	c-2.114-0.397-4.427,0.369-6.361-1.085c-0.183-0.155-0.243-0.311-0.183-0.466C46.401,166.888,46.462,166.812,46.523,166.812z"/>
<path fill-rule="evenodd" clip-rule="evenodd" fill="#020201" d="M89.035,171.768c-1.144-0.191-2.458,0.338-3.375-0.804
	c1.332-0.21,2.656-0.771,4.008-0.094c1.695-0.596,3.4-0.504,5.11-0.068c0.791,0.148,1.953-0.616,2.196,0.888
	c-1.39,0.75-2.827,0.431-4.261,0.192C91.487,171.844,90.261,171.805,89.035,171.768z"/>
<path fill-rule="evenodd" clip-rule="evenodd" fill="#020201" d="M100.858,167.497c2.543-1.142,5.203-0.392,8.364-1.058
	c-1.497,2.639-3.342,1.709-4.857,1.875C103.308,167.562,101.809,168.706,100.858,167.497z"/>
<path fill-rule="evenodd" clip-rule="evenodd" fill="#020201" d="M32.767,153.768c0.398-0.921,0.797-1.841,1.205-2.782
	c1.606,0.821,0.995,2.295,1.14,3.529c-1.191,0.059,0.68,2.023-0.985,1.658C32.942,155.915,32.501,154.977,32.767,153.768z"/>
<path fill-rule="evenodd" clip-rule="evenodd" fill="#020201" d="M38.48,162.75c-0.308-1.113-2.531-1.842-1.538-2.838
	c1.422-1.428,2.07,0.777,3.033,1.482c0.616,0.449,1.291,0.816,1.939,1.221c-0.156,0.52-0.454,0.935-0.912,1.234
	c-0.323,0.145-0.664,0.213-1.019,0.21C39.187,163.964,38.807,163.389,38.48,162.75z"/>
<path fill-rule="evenodd" clip-rule="evenodd" fill="#AF8F58" d="M118.967,164.323c2.076-1.138,4.458-0.851,6.655-1.43
	c0.003,0.293,0.008,0.584,0.013,0.876c0.403,0.679,0.286,1.393,0.144,2.109c-0.554,0.062-1.109,0.124-1.664,0.186
	c-0.948-1.049-2.498,0.022-3.459-0.981C120.093,164.829,119.53,164.575,118.967,164.323z"/>
<path fill-rule="evenodd" clip-rule="evenodd" fill="#020201" d="M56.29,167.612c-1.954-0.422-4.104,0.57-5.924-0.818
	C52.526,165.724,54.647,164.93,56.29,167.612z"/>
<path fill-rule="evenodd" clip-rule="evenodd" fill="#020201" d="M87.244,167.848c-0.25,0.63-0.266,0.812-0.344,0.846
	c-1.757,0.732-3.527,0.598-5.278-0.007c-0.108-0.037-0.173-0.665-0.098-0.703C83.36,167.053,85.215,167.333,87.244,167.848z"/>
<path fill-rule="evenodd" clip-rule="evenodd" fill="#020201" d="M206.096,135.774c0.336,0.268,0.673,0.537,1.009,0.805
	c-1.77,0.912-3.519,1.885-5.57,2.015c-0.047-0.323-0.095-0.647-0.142-0.97C202.361,135.486,203.841,134.646,206.096,135.774z"/>
<path fill-rule="evenodd" clip-rule="evenodd" fill="#020201" d="M118.185,168.896c1.932-0.891,3.384-1.462,5.77-0.299
	C121.63,169.599,120.185,170.404,118.185,168.896z"/>
<path fill-rule="evenodd" clip-rule="evenodd" fill="#020201" d="M100.858,167.497c1.14,0.395,2.518-0.229,3.507,0.817
	c-2.034,0.124-4.045,1.445-6.495,0.331C98.823,167.276,99.866,167.456,100.858,167.497z"/>
<path fill-rule="evenodd" clip-rule="evenodd" fill="#020201" d="M107.71,170.155c-2.466,2.052-3.981,1.102-5.494,0.777
	C103.613,169.774,105.152,170.025,107.71,170.155z"/>
<path fill-rule="evenodd" clip-rule="evenodd" fill="#020201" d="M170.401,151.679c-1.094,2.044-2.429,2.287-4.287,2.717
	C166.91,151.943,168.127,151.303,170.401,151.679z"/>
<path fill-rule="evenodd" clip-rule="evenodd" fill="#020201" d="M141.33,160.483c-1.055,1.671-2.14,2.434-3.601,2.582
	c-0.179,0.019-0.662-0.687-0.588-0.814C137.994,160.783,139.291,160.337,141.33,160.483z"/>
<path fill-rule="evenodd" clip-rule="evenodd" fill="#020201" d="M69.347,152.821c2.739-1.361,5.62-0.572,8.45-0.559
	C75.033,153.24,72.178,152.854,69.347,152.821z"/>
<path fill-rule="evenodd" clip-rule="evenodd" fill="#020201" d="M38.48,162.75c0.576,0.305,1.152,0.61,1.729,0.914
	c0.593,0.633,1.054,1.33,1.076,2.238c-0.035,0.354-0.204,0.631-0.487,0.842c-1.344,0.319-1.712-0.889-2.429-1.552
	c-0.007-0.569-0.014-1.138-0.021-1.708C38.341,163.231,38.385,162.986,38.48,162.75z"/>
<path fill-rule="evenodd" clip-rule="evenodd" fill="#020201" d="M62.785,167.985c2.358-1.42,3.667-0.732,5.57,0.378
	C66.167,169.525,64.897,168.53,62.785,167.985z"/>
<path fill-rule="evenodd" clip-rule="evenodd" fill="#020201" d="M120.656,165.083c1.177,0.244,3.159-2.348,3.459,0.981
	C122.929,165.855,120.906,168.595,120.656,165.083z"/>
<path fill-rule="evenodd" clip-rule="evenodd" fill="#020201" d="M40.798,166.744c0.039-0.299,0.078-0.597,0.117-0.895
	c1.989-0.449,3.743-0.219,4.919,1.693c-0.315,0.305-0.63,0.609-0.945,0.915C43.263,168.513,41.977,167.758,40.798,166.744z"/>
<path fill-rule="evenodd" clip-rule="evenodd" fill="#020201" d="M125.779,165.879c-1.167-0.627-0.985-1.346-0.144-2.109
	c1.087-0.188,2.169-0.357,3.012,1.076C127.675,165.196,126.727,165.537,125.779,165.879z"/>
<path fill-rule="evenodd" clip-rule="evenodd" fill="#020201" d="M212.042,134.333c-0.274-0.306-0.549-0.612-0.823-0.918
	c0.195-2.164,1.472-2.36,3.188-1.75c0.402,0.357,0.804,0.715,1.206,1.072C214.599,133.664,213.418,134.22,212.042,134.333z"/>
<path fill-rule="evenodd" clip-rule="evenodd" fill="#020201" d="M157.476,159.902c-0.571-1.808,0.922-2.416,1.011-3.705
	C160.676,158.127,159.752,159.081,157.476,159.902z"/>
<path fill-rule="evenodd" clip-rule="evenodd" fill="#020201" d="M112.807,167.185c1.564-1.748,3.024-1.788,5.509-1.425
	C116.297,167.176,114.961,167.685,112.807,167.185z"/>
<path fill-rule="evenodd" clip-rule="evenodd" fill="#020201" d="M163.746,154.469c1.025-0.116,1.148,0.872,1.498,1.527
	c0.293,0.548,0.063,1.039-0.622,1.109c-1.012,0.102-1.449-0.588-1.653-1.409C162.839,155.172,162.963,154.635,163.746,154.469z"/>
<path fill-rule="evenodd" clip-rule="evenodd" fill="#020201" d="M44.496,147.387c2.322-0.062,4.694-0.766,6.906,0.551
	C49.077,148.041,46.746,148.23,44.496,147.387z"/>
<path fill-rule="evenodd" clip-rule="evenodd" fill="#020201" d="M74.264,169.145c1.884-0.983,3.765-0.884,5.645,0.013
	C78.025,170.067,76.145,169.307,74.264,169.145z"/>
<path fill-rule="evenodd" clip-rule="evenodd" fill="#020201" d="M79.943,152.025c1.866-1.43,3.962-0.493,5.958-0.582
	C84.041,152.926,81.894,151.47,79.943,152.025z"/>
<path fill-rule="evenodd" clip-rule="evenodd" fill="#020201" d="M76.68,150.657c-1.854,1.262-3.906,0.604-5.889,0.603
	C72.676,150.291,74.685,150.539,76.68,150.657z"/>
<path fill-rule="evenodd" clip-rule="evenodd" fill="#020201" d="M94.779,170.802c-1.703,0.022-3.406,0.044-5.11,0.068
	C91.355,169.569,93.067,170.196,94.779,170.802z"/>
<path fill-rule="evenodd" clip-rule="evenodd" fill="#020201" d="M92.713,171.882c1.42-0.064,2.84-0.129,4.261-0.192
	C95.613,173.05,94.162,172.437,92.713,171.882z"/>
<path fill-rule="evenodd" clip-rule="evenodd" fill="#020201" d="M119.057,145.632c-1.39-0.014-2.778-0.028-4.167-0.043
	C116.286,144.87,117.681,144.252,119.057,145.632z"/>
<path fill-rule="evenodd" clip-rule="evenodd" fill="#020201" d="M31.344,147.972c-1.529,0.009-3.057,0.019-4.585,0.026
	C28.281,146.98,29.811,147.201,31.344,147.972z"/>
<path fill-rule="evenodd" clip-rule="evenodd" fill="#020201" d="M52.884,168.595c1.148-0.059,2.295-0.117,3.443-0.177
	c0.278,0.253,0.557,0.505,0.835,0.758c-1.302-0.017-2.603-0.034-3.904-0.051C53.171,168.921,53.047,168.744,52.884,168.595z"/>
<path fill-rule="evenodd" clip-rule="evenodd" fill="#020201" d="M55.186,148.193c1.495-0.123,3.033-0.592,4.367,0.553
	C58.058,148.869,56.568,148.956,55.186,148.193z"/>
<path fill-rule="evenodd" clip-rule="evenodd" fill="#020201" d="M40.82,163.501c0.365-0.295,0.73-0.591,1.094-0.886
	c0.706,0.356,1.412,0.714,2.117,1.07c-0.293,0.258-0.586,0.514-0.879,0.771C41.971,165.124,41.258,164.648,40.82,163.501z"/>
<path fill-rule="evenodd" clip-rule="evenodd" fill="#020201" d="M119.918,118.759c0.275-0.113,0.55-0.226,0.825-0.338
	c0.686,0.542,1.346,1.201,2.305,0.514c0.045-0.371,0.089-0.743,0.134-1.114c0.222,0.137,0.429,0.313,0.668,0.406
	c1.399,0.543,1.318,3.888,3.097,2.568c1.379-1.022-0.33-3.352-1.494-4.297c-2.919-2.37-4.426-5.878-7.222-8.29
	c0.235-0.567,0.469-1.136,0.704-1.704c1.381,0.125,2.758-0.362,4.141-0.025c0.325,0.348,0.649,0.696,0.974,1.044
	c0.799,0.98,0.187,2.134,0.388,3.187c0.804,2.857,2.189,5.309,5.214,6.209c2.738,0.814,4.306,2.589,3.921,5.306
	c-0.436,3.062-2.994,3.915-5.749,4.005c-1.618,0.054-3.242-0.09-4.678-0.996c-0.405-0.34-0.955-0.326-1.403-0.564
	c-0.955-0.484-1.831-1.061-2.354-2.043C118.181,121.147,118.758,119.913,119.918,118.759z"/>
<path fill-rule="evenodd" clip-rule="evenodd" fill="#020201" d="M184.001,123.481c0.367,0.324,0.735,0.648,1.104,0.973
	c-4.772,3.681-10.184,6.266-15.483,9.045c-1.296,1.645-2.885,2.286-4.909,1.424c-0.582-0.251-1.165-0.502-1.748-0.754
	C170.216,131.077,177.145,127.35,184.001,123.481z"/>
<path fill-rule="evenodd" clip-rule="evenodd" fill="#020201" d="M176.99,134.202c2.667-0.567,4.341-3.403,7.338-3.216
	c-1.456,3.201-4.11,4.562-7.461,4.854c-0.097-0.129-0.192-0.258-0.29-0.388C176.444,134.948,176.526,134.512,176.99,134.202z"/>
<path fill-rule="evenodd" clip-rule="evenodd" fill="#020201" d="M156.372,143.933c1.618,0.499,2.913-0.756,4.428-0.812
	c0.73-0.386,1.514-1.649,2.272-0.44c0.769,1.226-0.688,1.604-1.41,1.849c-2.345,0.794-4.728,1.59-7.33,1.09
	C154.318,144.263,155.214,143.948,156.372,143.933z"/>
<path fill-rule="evenodd" clip-rule="evenodd" fill="#020201" d="M173.629,143.145c-2.778,0.262-4.56,3.666-8.062,2.43
	c1.804-3.3,6.017-1.754,8.04-4.212c0.292,0.229,0.476,0.523,0.528,0.896C174.111,142.636,173.937,142.928,173.629,143.145z"/>
<path fill-rule="evenodd" clip-rule="evenodd" fill="#020201" d="M125.925,107.469c0.526-0.388,1.052-0.777,1.58-1.163
	c0.641-0.469,1.302-1.036,1.959-0.06c0.525,0.783-0.184,1.173-0.628,1.587c-0.958,0.888-1.953,1.737-2.933,2.602
	C123.633,109.43,124.565,108.448,125.925,107.469z"/>
<path fill-rule="evenodd" clip-rule="evenodd" fill="#020201" d="M145.283,142.88c1.828,0.775,4.368-0.161,5.632,2.348
	c-2.466,1.393-3.97-0.618-5.764-1.418C144.926,143.463,144.971,143.152,145.283,142.88z"/>
<path fill-rule="evenodd" clip-rule="evenodd" fill="#020201" d="M157.747,104.2c-0.098,0.751-0.493,1.148-1.07,0.977
	c-1.415-0.42-2.737-1.088-3.421-2.48c-0.222-0.449,0.047-1.176,0.755-1.015C155.592,102.04,156.887,102.891,157.747,104.2z"/>
<path fill-rule="evenodd" clip-rule="evenodd" fill="#020201" d="M152.639,102.716c-2.154,0.206-3.549-0.768-5.071-2.021
	C150.538,99.835,150.538,99.835,152.639,102.716z"/>
<path fill-rule="evenodd" clip-rule="evenodd" fill="#020201" d="M159.787,148.057c-0.91,2.237-2.836,2.154-4.602,2.256
	c-0.434,0.023-0.967-0.739-0.551-1.157C156.075,147.713,157.893,147.783,159.787,148.057z"/>
<path fill-rule="evenodd" clip-rule="evenodd" fill="#020201" d="M122.195,124.39c0.317,0.282,0.633,0.563,0.95,0.845
	c-0.327,1.348,1.96,2.562,0.203,3.984c-1.168-0.376-1.435-1.451-1.86-2.403c-0.832-0.507-1.477-1.165-0.937-2.182
	C120.904,123.968,121.573,123.988,122.195,124.39z"/>
<path fill-rule="evenodd" clip-rule="evenodd" fill="#020201" d="M167.926,111.415c0.032,0.554,0.064,1.108,0.094,1.662
	c-1.958-0.214-3.453-1.019-4.283-3.04C165.84,109.177,166.649,110.918,167.926,111.415z"/>
<path fill-rule="evenodd" clip-rule="evenodd" fill="#020201" d="M163.149,109.358c-0.577,0.257-0.717,0.38-0.806,0.35
	c-1.599-0.525-2.668-1.636-3.283-3.162c-0.068-0.17,0.478-0.83,0.586-0.795C161.382,106.316,162.467,107.535,163.149,109.358z"/>
<path fill-rule="evenodd" clip-rule="evenodd" fill="#020201" d="M145.283,142.88c-0.045,0.31-0.088,0.62-0.132,0.93
	c-2.283-0.077-3.078-1.907-5.274-3.79C143.126,140.082,144.29,141.339,145.283,142.88z"/>
<path fill-rule="evenodd" clip-rule="evenodd" fill="#020201" d="M173.787,142.628c-0.062-0.422-0.121-0.844-0.181-1.266
	c0.668-0.64,1.309-1.311,2.011-1.909c0.573-0.49,1.436-0.558,1.735,0.054c0.191,0.395-0.385,1.165-0.616,1.767
	C176.089,142.458,175.134,142.972,173.787,142.628z"/>
<path fill-rule="evenodd" clip-rule="evenodd" fill="#020201" d="M176.867,135.841c0.16,2.664-1.766,2.735-3.421,2.333
	c-1.227-0.298-0.266-1.146,0.224-1.68c0.968-0.979,1.977-1.723,3.321-0.597L176.867,135.841z"/>
<path fill-rule="evenodd" clip-rule="evenodd" fill="#020201" d="M167.932,112.983c1.523,0.004,2.586,1.054,3.177,2.118
	c1.204,2.173-0.812,1.03-1.516,1.234C168.771,115.351,167.606,114.536,167.932,112.983z"/>
<path fill-rule="evenodd" clip-rule="evenodd" fill="#020201" d="M172.213,139.23c-0.337,1.046-1.234,1.315-2.162,1.393
	c-0.729,0.062-1.437-0.381-1.144-1.147c0.363-0.95,1.387-1.121,2.346-1.174C171.897,138.267,172.21,138.576,172.213,139.23z"/>
<path fill-rule="evenodd" clip-rule="evenodd" fill="#020201" d="M184.306,131.005c0.24-1.443,1.954-1.495,2.5-2.649
	c1.683,0.068,2.317,0.573,0.862,2.005C186.681,131.329,185.416,130.74,184.306,131.005z"/>
<path fill-rule="evenodd" clip-rule="evenodd" fill="#AF8F58" d="M125.925,107.469c-0.332,0.986-1.253,1.969-0.022,2.966
	c-0.489,0.092-0.978,0.184-1.466,0.276c-3.331-0.673-0.015-2.155-0.388-3.187c0.249-0.084,0.502-0.15,0.76-0.197
	C125.181,107.374,125.553,107.421,125.925,107.469z"/>
<path fill-rule="evenodd" clip-rule="evenodd" fill="#020201" d="M124.761,131.731c-0.506-0.859-1.014-1.721-1.521-2.581
	c1.572-0.039,3.042,0.295,3.205,2.116C126.502,131.891,125.397,131.753,124.761,131.731z"/>
<path fill-rule="evenodd" clip-rule="evenodd" fill="#020201" d="M148.735,148.057c0.812,0.022,1.751,0.038,1.816,1.071
	c0.055,0.847-0.813,0.921-1.424,0.882c-0.722-0.047-1.743,0.073-1.807-1.009C147.271,148.128,148.061,148.077,148.735,148.057z"/>
<path fill-rule="evenodd" clip-rule="evenodd" fill="#AF8F58" d="M176.991,135.897c-1.106,0.2-2.214,0.399-3.321,0.597
	c-0.021-0.312-0.042-0.621-0.062-0.933c1.014-0.736,2.019-1.494,3.383-1.359C176.99,134.768,176.991,135.333,176.991,135.897z"/>
<path fill-rule="evenodd" clip-rule="evenodd" fill="#020201" d="M167.192,140.817c-0.461,0.817-0.91,1.502-1.814,1.525
	c-0.76,0.019-0.846-0.59-0.593-1.074c0.362-0.692,0.847-1.438,1.801-1.256C166.84,140.062,167.008,140.561,167.192,140.817z"/>
<path fill-rule="evenodd" clip-rule="evenodd" fill="#020201" d="M145.302,147.187c0.675,0.329,1.141,1.013,0.498,1.453
	c-0.687,0.47-1.753,0.672-2.339-0.456C143.417,146.635,144.288,146.779,145.302,147.187z"/>
<path fill-rule="evenodd" clip-rule="evenodd" fill="#020201" d="M145.302,147.187c-0.707,0.158-1.485,0.186-1.841,0.997
	c-0.845-0.555-1.688-1.109-2.533-1.663c0.617-0.642,1.278-0.544,1.962-0.124C143.768,146.433,144.675,146.382,145.302,147.187z"/>
<path fill-rule="evenodd" clip-rule="evenodd" fill="#020201" d="M142.89,146.396c-0.654,0.042-1.308,0.083-1.962,0.124
	c-0.846-0.226-1.269-0.808-1.39-1.642c-0.001,0.004-0.107,0.127-0.108,0.13C140.909,144.656,142.313,144.491,142.89,146.396z"/>
<path fill-rule="evenodd" clip-rule="evenodd" fill="#AF8F58" d="M173.787,142.628c0.982-0.451,1.965-0.902,2.949-1.354
	c0.083,0.297,0.166,0.593,0.249,0.889c-0.653,0.85-1.425,1.531-2.514,1.762c-0.281-0.26-0.562-0.52-0.843-0.779
	C173.683,142.974,173.735,142.8,173.787,142.628z"/>
<path fill-rule="evenodd" clip-rule="evenodd" fill="#020201" d="M76.681,147.395c-5.158,1.196-10.317,1.188-15.477,0.009
	C66.363,147.4,71.522,147.396,76.681,147.395z"/>
<path fill-rule="evenodd" clip-rule="evenodd" fill="#020201" d="M58.188,128.367c0.013-3.319,2.359-3.178,4.642-3.131
	C62.263,127.734,59.919,127.596,58.188,128.367z"/>
<path fill-rule="evenodd" clip-rule="evenodd" fill="#020201" d="M50.072,146.334c-3.365,0.001-6.775,0.81-10.063-0.564
	C43.377,145.706,46.765,145.306,50.072,146.334z"/>
<path fill-rule="evenodd" clip-rule="evenodd" fill="#020201" d="M57.314,147.178c-1.462,0.099-2.972,0.538-4.263-0.593
	C54.523,146.423,55.968,146.444,57.314,147.178z"/>
<path fill-rule="evenodd" clip-rule="evenodd" fill="#020201" d="M154.996,177.45c-0.257,0.873-1.056,0.798-1.709,0.977
	c-3.714,1.328-7.523,2.289-11.41,2.948c-0.263-0.46-0.526-0.92-0.791-1.381c4.351-1.101,8.701-2.202,13.052-3.304
	C154.423,176.943,154.71,177.197,154.996,177.45z"/>
<path fill-rule="evenodd" clip-rule="evenodd" fill="#020201" d="M130.479,181.647c-1.491,1.205-3.231,0.593-4.878,0.67
	C127.134,181.417,128.809,181.555,130.479,181.647z"/>
<path fill-rule="evenodd" clip-rule="evenodd" fill="#020201" d="M123.148,183.815c1.576-1.212,3.367-0.633,5.09-0.605
	C126.618,184.059,124.886,183.96,123.148,183.815z"/>
<path fill-rule="evenodd" clip-rule="evenodd" fill="#020201" d="M131.304,182.98c1.272-1.124,2.779-0.627,4.218-0.608
	C134.203,183.183,132.759,183.126,131.304,182.98z"/>
<path fill-rule="evenodd" clip-rule="evenodd" fill="#020201" d="M198.994,137.401c-1.097,1.389-2.853,1.696-4.249,2.595
	c-3.002,0.891-5.576,2.948-8.806,3.207c-0.345-0.654-0.954-0.789-1.615-0.818c0.139-0.201,0.228-0.42,0.265-0.663
	c8.865-4.089,17.732-8.183,26.598-12.271c0.585,0.246,1.171,0.491,1.756,0.738c0.042,1.676-1.479,1.824-2.462,2.263
	C206.676,134.152,202.968,136.089,198.994,137.401z"/>
<path fill-rule="evenodd" clip-rule="evenodd" fill="#AF8F58" d="M164.713,134.923c1.637-0.475,3.272-0.949,4.909-1.424
	c0.343,0.273,0.685,0.545,1.026,0.819c-3.743,2.205-7.97,3.072-12.034,4.396c-0.709,0.23-1.371,0.497-1.649-0.315
	c-0.305-0.888,0.175-1.583,1.134-1.754C160.352,136.249,162.622,135.937,164.713,134.923z"/>
<path fill-rule="evenodd" clip-rule="evenodd" fill="#AF8F58" d="M123.075,106.479c-1.369,1.849-2.749,1.937-4.141,0.025
	c-0.998-1.846-1.817-3.535,1.508-3.739c1.578-0.097,3.13-0.601,4.93-0.969C125.383,103.983,123.389,104.831,123.075,106.479z"/>
<path fill-rule="evenodd" clip-rule="evenodd" fill="#AF8F58" d="M122.195,124.39c-2.082,0.27-1.153,1.418-0.708,2.426
	c-2.344-0.388-2.222-2.333-2.53-4.006c0.303-0.391,0.646-0.429,1.029-0.116C120.7,123.29,122.045,123.062,122.195,124.39z"/>
<path fill-rule="evenodd" clip-rule="evenodd" fill="#AF8F58" d="M119.987,122.693c-0.343,0.038-0.686,0.077-1.029,0.116
	c-1.171-1.665-0.777-3.342-0.041-5.022c0.334,0.324,0.667,0.648,1.001,0.972C119.378,120.08,119.244,121.394,119.987,122.693z"/>
<path fill-rule="evenodd" clip-rule="evenodd" fill="#AF8F58" d="M198.994,137.401c4.14-3.391,9.708-4.018,13.948-7.213
	c0.776-0.228,1.554-0.455,2.329-0.683c0.259,0.428,0.518,0.857,0.776,1.287c-0.519,0.344-1.443-0.077-1.642,0.872
	c-1.268,0.21-2.396,0.671-3.188,1.75c-1.896,0.377-3.914,0.488-5.123,2.359c-1.954-0.367-3.082,1.37-4.703,1.85
	C200.594,137.55,199.794,137.476,198.994,137.401z"/>
<path fill-rule="evenodd" clip-rule="evenodd" fill="#AF8F58" d="M123.048,118.935c-0.331,0.813-0.238,2.292-1.295,2.158
	c-1.347-0.171-0.677-1.749-1.01-2.672l-0.005-0.312l0.28-0.119C121.996,117.656,122.418,118.52,123.048,118.935z"/>
<path fill-rule="evenodd" clip-rule="evenodd" fill="#AF8F58" d="M133.695,136.254l-0.39,0.091l-0.396-0.062
	c-1.144-0.225-2.394,0.348-3.458-0.465c1.74-2.497,3.032-1.524,4.184,0.541L133.695,136.254z"/>
<path fill-rule="evenodd" clip-rule="evenodd" fill="#AF8F58" d="M135.417,138.121c1.402,0.943,0.716,1.806-0.217,2.448
	c-0.846,0.583-1.683,0-1.954-0.736c-0.442-1.201,0.728-0.585,1.168-0.809C134.829,138.814,134.982,138.312,135.417,138.121z"/>
<path fill-rule="evenodd" clip-rule="evenodd" fill="#AF8F58" d="M129.452,135.818c1.157,0.127,2.39-0.318,3.458,0.465
	c-1.228,0.021-2.455,0.043-3.684,0.053c-0.014,0-0.066-0.182-0.034-0.241C129.253,135.987,129.362,135.909,129.452,135.818z"/>
<path fill-rule="evenodd" clip-rule="evenodd" fill="#AF8F58" d="M135.417,138.121c-0.334,0.302-0.669,0.603-1.003,0.903
	c0.653-1.155-0.91-1.734-0.719-2.771l-0.061,0.104C134.927,136.242,135.169,137.186,135.417,138.121z"/>
<path fill-rule="evenodd" clip-rule="evenodd" fill="#AF8F58" d="M40.82,163.501c0.777,0.318,1.555,0.636,2.332,0.955
	c1.124,0.784,2.248,1.569,3.372,2.355c-0.002,0.232-0.002,0.465,0,0.698l-0.343,0.049l-0.346-0.016
	c-1.64-0.564-3.28-1.129-4.919-1.693c-0.235-0.729-0.47-1.458-0.706-2.186C40.435,163.693,40.639,163.64,40.82,163.501z"/>
<path fill-rule="evenodd" clip-rule="evenodd" fill="#AF8F58" d="M124.348,123.225c3.651,0.958,5.133-0.741,5.32-4.202
	c2.142,0.949,2.645,2.576,1.492,3.922C129.241,125.186,126.728,124.941,124.348,123.225z"/>
</svg>
